<svg width="96" height="125" viewBox="0 0 96 125" fill="none" xmlns="http://www.w3.org/2000/svg">
<path d="M1.0985 122V112.38H2.1515V121.083H6.89V122H1.0985ZM10.9997 122.117C10.3367 122.117 9.81456 121.946 9.43323 121.603C9.05623 121.261 8.86773 120.791 8.86773 120.193C8.86773 119.578 9.06923 119.099 9.47223 118.756C9.87956 118.41 10.5317 118.193 11.4287 118.106L13.3202 117.905L13.4177 118.594L11.4937 118.802C10.9347 118.858 10.5317 118.995 10.2847 119.211C10.0421 119.424 9.92073 119.718 9.92073 120.095C9.92073 120.49 10.0334 120.791 10.2587 120.999C10.4841 121.207 10.8199 121.311 11.2662 121.311C11.5739 121.311 11.8837 121.246 12.1957 121.116C12.5077 120.982 12.7872 120.758 13.0342 120.446V117.333C13.0342 116.9 12.9671 116.566 12.8327 116.332C12.6984 116.094 12.4969 115.927 12.2282 115.831C11.9596 115.736 11.6216 115.688 11.2142 115.688C10.9499 115.688 10.6487 115.712 10.3107 115.76C9.97706 115.808 9.64339 115.888 9.30973 116V115.149C9.61306 115.049 9.94673 114.973 10.3107 114.921C10.6791 114.865 11.0257 114.837 11.3507 114.837C11.9487 114.837 12.4471 114.915 12.8457 115.071C13.2487 115.227 13.5499 115.491 13.7492 115.864C13.9529 116.232 14.0547 116.737 14.0547 117.378V122H13.1837L13.1057 121.213H13.0407C12.8111 121.504 12.5164 121.727 12.1567 121.883C11.8014 122.039 11.4157 122.117 10.9997 122.117ZM17.2417 124.86V114.947H18.1257L18.2037 115.721H18.2687C18.481 115.461 18.7518 115.249 19.0812 115.084C19.4148 114.919 19.7918 114.837 20.2122 114.837C20.7192 114.837 21.1828 114.95 21.6032 115.175C22.0235 115.4 22.3593 115.771 22.6107 116.286C22.862 116.798 22.9877 117.482 22.9877 118.34C22.9877 119.19 22.8533 119.894 22.5847 120.453C22.316 121.012 21.9173 121.43 21.3887 121.707C20.86 121.985 20.2078 122.124 19.4322 122.124C19.2328 122.124 19.0335 122.113 18.8342 122.091C18.6348 122.074 18.4507 122.054 18.2817 122.033V124.86H17.2417ZM19.4452 121.272C20.2685 121.272 20.8882 121.051 21.3042 120.609C21.7202 120.167 21.9282 119.441 21.9282 118.431C21.9282 117.729 21.8437 117.183 21.6747 116.793C21.5057 116.403 21.2738 116.13 20.9792 115.974C20.6845 115.814 20.3508 115.734 19.9782 115.734C19.6618 115.734 19.352 115.803 19.0487 115.942C18.7453 116.076 18.4897 116.297 18.2817 116.605V121.148C18.4377 121.183 18.6197 121.213 18.8277 121.239C19.04 121.261 19.2458 121.272 19.4452 121.272ZM28.3928 122.124C27.6735 122.124 27.1145 121.939 26.7158 121.571C26.3171 121.198 26.1178 120.605 26.1178 119.79V114.947L26.2868 112.38H27.1578V119.621C27.1578 120.215 27.2791 120.631 27.5218 120.869C27.7688 121.107 28.135 121.226 28.6203 121.226C28.7503 121.226 28.8846 121.218 29.0233 121.2C29.162 121.179 29.3136 121.151 29.4783 121.116V121.993C29.305 122.037 29.1273 122.069 28.9453 122.091C28.7633 122.113 28.5791 122.124 28.3928 122.124ZM24.7918 115.805V114.947H29.3743V115.805H24.7918ZM34.4204 122.124C33.8138 122.124 33.2851 121.998 32.8344 121.746C32.3838 121.491 32.0349 121.096 31.7879 120.563C31.5409 120.026 31.4174 119.331 31.4174 118.477C31.4174 117.632 31.5388 116.941 31.7814 116.403C32.0284 115.866 32.3773 115.472 32.8279 115.22C33.2786 114.965 33.8094 114.837 34.4204 114.837C35.0314 114.837 35.5623 114.965 36.0129 115.22C36.4636 115.472 36.8103 115.866 37.0529 116.403C37.2999 116.936 37.4234 117.628 37.4234 118.477C37.4234 119.322 37.2978 120.013 37.0464 120.55C36.7994 121.088 36.4506 121.484 35.9999 121.74C35.5536 121.996 35.0271 122.124 34.4204 122.124ZM34.4204 121.278C34.8191 121.278 35.1636 121.192 35.4539 121.018C35.7443 120.845 35.9674 120.557 36.1234 120.154C36.2838 119.747 36.3639 119.194 36.3639 118.496C36.3639 117.786 36.2838 117.227 36.1234 116.819C35.9674 116.408 35.7421 116.117 35.4474 115.948C35.1571 115.775 34.8148 115.688 34.4204 115.688C34.0218 115.688 33.6773 115.775 33.3869 115.948C33.0966 116.117 32.8713 116.406 32.7109 116.813C32.5549 117.216 32.4769 117.766 32.4769 118.464C32.4769 119.17 32.5549 119.729 32.7109 120.141C32.8713 120.548 33.0966 120.841 33.3869 121.018C33.6773 121.192 34.0218 121.278 34.4204 121.278ZM40.3116 124.86V114.947H41.1956L41.2736 115.721H41.3386C41.5509 115.461 41.8217 115.249 42.1511 115.084C42.4847 114.919 42.8617 114.837 43.2821 114.837C43.7891 114.837 44.2527 114.95 44.6731 115.175C45.0934 115.4 45.4292 115.771 45.6806 116.286C45.9319 116.798 46.0576 117.482 46.0576 118.34C46.0576 119.19 45.9232 119.894 45.6546 120.453C45.3859 121.012 44.9872 121.43 44.4586 121.707C43.9299 121.985 43.2777 122.124 42.5021 122.124C42.3027 122.124 42.1034 122.113 41.9041 122.091C41.7047 122.074 41.5206 122.054 41.3516 122.033V124.86H40.3116ZM42.5151 121.272C43.3384 121.272 43.9581 121.051 44.3741 120.609C44.7901 120.167 44.9981 119.441 44.9981 118.431C44.9981 117.729 44.9136 117.183 44.7446 116.793C44.5756 116.403 44.3437 116.13 44.0491 115.974C43.7544 115.814 43.4207 115.734 43.0481 115.734C42.7317 115.734 42.4219 115.803 42.1186 115.942C41.8152 116.076 41.5596 116.297 41.3516 116.605V121.148C41.5076 121.183 41.6896 121.213 41.8976 121.239C42.1099 121.261 42.3157 121.272 42.5151 121.272ZM55.4448 122.124C55.0635 122.124 54.6648 122.091 54.2488 122.026C53.8371 121.961 53.445 121.863 53.0723 121.733V120.823C53.341 120.914 53.6118 120.99 53.8848 121.051C54.1621 121.107 54.433 121.151 54.6973 121.181C54.9616 121.211 55.2151 121.226 55.4578 121.226C56.2551 121.226 56.8445 121.077 57.2258 120.778C57.6071 120.475 57.7978 120.035 57.7978 119.458C57.7978 118.969 57.6526 118.596 57.3623 118.34C57.0763 118.08 56.5866 117.859 55.8933 117.677L55.3733 117.541C54.5543 117.333 53.9411 117.019 53.5338 116.598C53.1265 116.174 52.9228 115.615 52.9228 114.921C52.9228 114.094 53.2088 113.444 53.7808 112.971C54.3571 112.495 55.213 112.256 56.3483 112.256C56.721 112.256 57.0893 112.282 57.4533 112.334C57.8173 112.382 58.1488 112.454 58.4478 112.549V113.459C58.1185 113.355 57.7783 113.279 57.4273 113.231C57.0806 113.179 56.7296 113.153 56.3743 113.153C55.824 113.153 55.3733 113.221 55.0223 113.355C54.6713 113.489 54.4113 113.684 54.2423 113.94C54.0733 114.196 53.9888 114.503 53.9888 114.863C53.9888 115.335 54.121 115.701 54.3853 115.961C54.6496 116.221 55.1068 116.438 55.7568 116.611L56.2833 116.741C56.8726 116.893 57.358 117.088 57.7393 117.326C58.1206 117.56 58.4045 117.849 58.5908 118.191C58.7771 118.529 58.8703 118.93 58.8703 119.393C58.8703 119.974 58.736 120.468 58.4673 120.875C58.1986 121.278 57.8086 121.588 57.2973 121.805C56.786 122.017 56.1685 122.124 55.4448 122.124ZM61.6295 122V111.496H62.6695V122H61.6295ZM68.9088 122.124C68.1765 122.124 67.5612 122 67.0628 121.753C66.5688 121.502 66.1962 121.109 65.9448 120.576C65.6935 120.039 65.5678 119.337 65.5678 118.47C65.5678 117.643 65.6827 116.96 65.9123 116.423C66.1463 115.886 66.4757 115.487 66.9003 115.227C67.3293 114.967 67.8363 114.837 68.4213 114.837C68.9977 114.837 69.4873 114.969 69.8903 115.233C70.2977 115.493 70.6075 115.894 70.8198 116.436C71.0322 116.973 71.1383 117.66 71.1383 118.496V118.815H66.1333V118.106H70.3713L70.1438 118.262C70.1438 117.604 70.0745 117.079 69.9358 116.689C69.8015 116.299 69.6043 116.02 69.3443 115.851C69.0887 115.678 68.7767 115.591 68.4083 115.591C68.0443 115.591 67.728 115.675 67.4593 115.844C67.1907 116.013 66.9827 116.293 66.8353 116.683C66.6923 117.073 66.6208 117.599 66.6208 118.262V118.626C66.6208 119.276 66.7075 119.796 66.8808 120.186C67.0585 120.572 67.325 120.852 67.6803 121.025C68.0357 121.194 68.4863 121.278 69.0323 121.278C69.301 121.278 69.5783 121.255 69.8643 121.207C70.1547 121.155 70.4623 121.083 70.7873 120.992V121.844C70.4493 121.939 70.1265 122.009 69.8188 122.052C69.5155 122.1 69.2122 122.124 68.9088 122.124ZM76.8993 122.124C76.1669 122.124 75.5516 122 75.0533 121.753C74.5593 121.502 74.1866 121.109 73.9353 120.576C73.6839 120.039 73.5583 119.337 73.5583 118.47C73.5583 117.643 73.6731 116.96 73.9028 116.423C74.1368 115.886 74.4661 115.487 74.8908 115.227C75.3198 114.967 75.8268 114.837 76.4118 114.837C76.9881 114.837 77.4778 114.969 77.8808 115.233C78.2881 115.493 78.5979 115.894 78.8103 116.436C79.0226 116.973 79.1288 117.66 79.1288 118.496V118.815H74.1238V118.106H78.3618L78.1343 118.262C78.1343 117.604 78.0649 117.079 77.9263 116.689C77.7919 116.299 77.5948 116.02 77.3348 115.851C77.0791 115.678 76.7671 115.591 76.3988 115.591C76.0348 115.591 75.7184 115.675 75.4498 115.844C75.1811 116.013 74.9731 116.293 74.8258 116.683C74.6828 117.073 74.6113 117.599 74.6113 118.262V118.626C74.6113 119.276 74.6979 119.796 74.8713 120.186C75.0489 120.572 75.3154 120.852 75.6708 121.025C76.0261 121.194 76.4768 121.278 77.0228 121.278C77.2914 121.278 77.5688 121.255 77.8548 121.207C78.1451 121.155 78.4528 121.083 78.7778 120.992V121.844C78.4398 121.939 78.1169 122.009 77.8093 122.052C77.5059 122.1 77.2026 122.124 76.8993 122.124ZM83.6686 122L80.9971 114.947H82.1086L84.4291 121.252H84.2991L86.6261 114.947H87.6726L85.0011 122H83.6686ZM92.9944 122.124C92.262 122.124 91.6467 122 91.1484 121.753C90.6544 121.502 90.2817 121.109 90.0304 120.576C89.779 120.039 89.6534 119.337 89.6534 118.47C89.6534 117.643 89.7682 116.96 89.9979 116.423C90.2319 115.886 90.5612 115.487 90.9859 115.227C91.4149 114.967 91.9219 114.837 92.5069 114.837C93.0832 114.837 93.5729 114.969 93.9759 115.233C94.3832 115.493 94.693 115.894 94.9054 116.436C95.1177 116.973 95.2239 117.66 95.2239 118.496V118.815H90.2189V118.106H94.4569L94.2294 118.262C94.2294 117.604 94.16 117.079 94.0214 116.689C93.887 116.299 93.6899 116.02 93.4299 115.851C93.1742 115.678 92.8622 115.591 92.4939 115.591C92.1299 115.591 91.8135 115.675 91.5449 115.844C91.2762 116.013 91.0682 116.293 90.9209 116.683C90.7779 117.073 90.7064 117.599 90.7064 118.262V118.626C90.7064 119.276 90.793 119.796 90.9664 120.186C91.144 120.572 91.4105 120.852 91.7659 121.025C92.1212 121.194 92.5719 121.278 93.1179 121.278C93.3865 121.278 93.6639 121.255 93.9499 121.207C94.2402 121.155 94.5479 121.083 94.8729 120.992V121.844C94.5349 121.939 94.212 122.009 93.9044 122.052C93.601 122.1 93.2977 122.124 92.9944 122.124Z" fill="#E5DFD9"/>
<g clip-path="url(#clip0_2_668)">
<path d="M89.4001 29.6201H6.29809L6.07349 84.1527C6.07349 86.7228 6.29809 87.8403 8.88099 87.8403H87.2664C89.4001 87.8403 89.3252 85.3819 89.4001 84.1527V29.6201Z" stroke="#E5DFD9" stroke-width="1.5"/>
<path d="M85.5817 32.3018H10.0956L9.8916 81.9149C9.8916 84.2532 10.0956 85.2699 12.4418 85.2699H83.6436C85.5817 85.2699 85.5137 83.0332 85.5817 81.9149V32.3018Z" stroke="#E5DFD9" stroke-width="1.5"/>
<rect x="31.5294" y="73.2808" width="32.19" height="4.75781" stroke="#E5DFD9" stroke-width="1.5"/>
<path d="M41.7848 75.6597H53.5763" stroke="#E5DFD9" stroke-width="1.5"/>
<path d="M11.641 20.8804C5.95303 21.9604 4.53105 27.7204 6.60103 31.3204C5.98132 25.8304 9.12103 22.3204 12.091 22.3204L11.641 20.8804Z" fill="#E5DFD9"/>
</g>
<defs>
<clipPath id="clip0_2_668">
<rect width="90" height="90" fill="white" transform="translate(3)"/>
</clipPath>
</defs>
</svg>
