<svg width="90" height="124" viewBox="0 0 90 124" fill="none" xmlns="http://www.w3.org/2000/svg">
<path d="M17.1885 121L20.64 111.38H22.1285L25.58 121H24.5075L21.2835 111.88H21.4655L18.2415 121H17.1885ZM18.9955 117.886L19.2425 116.996H23.5195L23.7665 117.886H18.9955ZM28.054 121V110.496H29.094V121H28.054ZM32.3628 121V110.496H33.4028V121H32.3628ZM43.6349 121.085C43.3792 121.085 43.1192 121.078 42.8549 121.065C42.5949 121.052 42.3327 121.035 42.0684 121.013C41.804 120.991 41.5354 120.963 41.2624 120.928V111.542C41.5267 111.486 41.7975 111.438 42.0749 111.399C42.3565 111.36 42.649 111.33 42.9524 111.308C43.2557 111.287 43.5742 111.276 43.9079 111.276C44.7702 111.276 45.4722 111.371 46.0139 111.562C46.5599 111.748 46.9607 112.032 47.2164 112.413C47.472 112.79 47.5999 113.267 47.5999 113.843C47.5999 114.212 47.5327 114.554 47.3984 114.87C47.264 115.182 47.0517 115.445 46.7614 115.657C46.471 115.869 46.0919 116.012 45.6239 116.086L45.6369 115.995C46.3909 116.082 46.952 116.335 47.3204 116.755C47.6887 117.176 47.8729 117.72 47.8729 118.387C47.8729 118.825 47.7949 119.212 47.6389 119.55C47.4872 119.884 47.2424 120.166 46.9044 120.395C46.5707 120.621 46.133 120.792 45.5914 120.909C45.054 121.026 44.4019 121.085 43.6349 121.085ZM43.8494 120.246C44.6077 120.246 45.2057 120.177 45.6434 120.038C46.0854 119.899 46.3995 119.691 46.5859 119.414C46.7765 119.132 46.8719 118.779 46.8719 118.354C46.8719 117.717 46.6704 117.247 46.2674 116.944C45.8687 116.641 45.236 116.489 44.3694 116.489H42.1529V115.637H44.1809C44.7615 115.637 45.2274 115.572 45.5784 115.442C45.9337 115.312 46.1894 115.117 46.3454 114.857C46.5057 114.597 46.5859 114.272 46.5859 113.882C46.5859 113.254 46.3887 112.803 45.9944 112.53C45.6044 112.253 44.9392 112.114 43.9989 112.114C43.6479 112.114 43.338 112.127 43.0694 112.153C42.8007 112.175 42.545 112.208 42.3024 112.251V120.155C42.5537 120.19 42.8029 120.213 43.0499 120.226C43.3012 120.239 43.5677 120.246 43.8494 120.246ZM52.3823 121.117C51.7193 121.117 51.1972 120.946 50.8158 120.603C50.4388 120.261 50.2503 119.791 50.2503 119.193C50.2503 118.578 50.4518 118.099 50.8548 117.756C51.2622 117.41 51.9143 117.193 52.8113 117.106L54.7028 116.905L54.8003 117.594L52.8763 117.802C52.3173 117.858 51.9143 117.995 51.6673 118.211C51.4247 118.424 51.3033 118.718 51.3033 119.095C51.3033 119.49 51.416 119.791 51.6413 119.999C51.8667 120.207 52.2025 120.311 52.6488 120.311C52.9565 120.311 53.2663 120.246 53.5783 120.116C53.8903 119.982 54.1698 119.758 54.4168 119.446V116.333C54.4168 115.9 54.3497 115.566 54.2153 115.332C54.081 115.094 53.8795 114.927 53.6108 114.831C53.3422 114.736 53.0042 114.688 52.5968 114.688C52.3325 114.688 52.0313 114.712 51.6933 114.76C51.3597 114.808 51.026 114.888 50.6923 115V114.149C50.9957 114.049 51.3293 113.973 51.6933 113.921C52.0617 113.865 52.4083 113.837 52.7333 113.837C53.3313 113.837 53.8297 113.915 54.2283 114.071C54.6313 114.227 54.9325 114.491 55.1318 114.864C55.3355 115.232 55.4373 115.737 55.4373 116.378V121H54.5663L54.4883 120.213H54.4233C54.1937 120.504 53.899 120.727 53.5393 120.883C53.184 121.039 52.7983 121.117 52.3823 121.117ZM60.7823 123.99C60.4573 123.99 60.1084 123.962 59.7358 123.906C59.3674 123.854 59.0229 123.776 58.7023 123.672V122.801C59.0706 122.913 59.4216 122.996 59.7553 123.048C60.0933 123.104 60.4161 123.132 60.7238 123.132C61.4864 123.132 62.0498 122.967 62.4138 122.638C62.7778 122.313 62.9598 121.748 62.9598 120.941V120.252H62.9013C62.6889 120.499 62.4159 120.701 62.0823 120.857C61.7529 121.013 61.3759 121.091 60.9513 121.091C60.4616 121.091 60.0131 120.978 59.6058 120.753C59.1984 120.523 58.8713 120.155 58.6243 119.648C58.3773 119.137 58.2538 118.458 58.2538 117.613C58.2538 116.348 58.5549 115.403 59.1573 114.779C59.7639 114.151 60.6544 113.837 61.8288 113.837C62.0714 113.837 62.3184 113.85 62.5698 113.876C62.8254 113.902 63.0746 113.939 63.3173 113.987C63.5599 114.034 63.7874 114.09 63.9998 114.155V120.786C63.9998 121.93 63.7311 122.749 63.1938 123.243C62.6564 123.741 61.8526 123.99 60.7823 123.99ZM61.2568 120.2C61.5731 120.2 61.8829 120.133 62.1863 119.999C62.4939 119.865 62.7518 119.659 62.9598 119.381V114.831C62.8038 114.792 62.6196 114.76 62.4073 114.734C62.1949 114.704 61.9739 114.688 61.7443 114.688C60.9556 114.688 60.3533 114.909 59.9373 115.351C59.5213 115.789 59.3133 116.511 59.3133 117.516C59.3133 118.214 59.3978 118.757 59.5668 119.147C59.7358 119.537 59.9654 119.81 60.2558 119.966C60.5504 120.122 60.8841 120.2 61.2568 120.2ZM68.9457 121.124C68.5903 121.124 68.2502 121.1 67.9252 121.052C67.6045 121.004 67.2925 120.933 66.9892 120.837V120.005C67.3358 120.109 67.6673 120.185 67.9837 120.233C68.3 120.276 68.6207 120.298 68.9457 120.298C69.5567 120.298 69.9987 120.194 70.2717 119.986C70.549 119.778 70.6877 119.485 70.6877 119.108C70.6877 118.788 70.6053 118.543 70.4407 118.374C70.276 118.201 69.9965 118.073 69.6022 117.99L68.6467 117.795C68.0053 117.657 67.546 117.429 67.2687 117.113C66.9957 116.792 66.8592 116.381 66.8592 115.878C66.8592 115.284 67.0867 114.797 67.5417 114.415C68.001 114.03 68.7052 113.837 69.6542 113.837C69.9575 113.837 70.2457 113.854 70.5187 113.889C70.796 113.924 71.0625 113.976 71.3182 114.045V114.883C71.0322 114.805 70.757 114.749 70.4927 114.714C70.2327 114.68 69.9597 114.662 69.6737 114.662C69.2273 114.662 68.8698 114.717 68.6012 114.825C68.3368 114.929 68.1462 115.072 68.0292 115.254C67.9122 115.432 67.8537 115.631 67.8537 115.852C67.8537 116.129 67.9317 116.359 68.0877 116.541C68.2437 116.723 68.5167 116.857 68.9067 116.944L69.8622 117.139C70.5122 117.273 70.978 117.494 71.2597 117.802C71.5457 118.11 71.6887 118.528 71.6887 119.056C71.6887 119.693 71.4547 120.198 70.9867 120.571C70.523 120.939 69.8427 121.124 68.9457 121.124Z" fill="#E5DFD9"/>
<path d="M13.1742 31.0675V25.14C13.2563 24.3224 14.0114 22.6873 16.3753 22.6873C18.7391 22.6873 27.0454 22.6873 30.9031 22.6873C31.888 22.6191 33.8579 23.0143 33.8579 25.14C33.8579 27.2657 33.8579 29.9774 33.8579 31.0675" stroke="#E5DFD9" stroke-width="0.9"/>
<path d="M19.5763 47.5954H27.702M7.75708 30.8293H39.5212C41.7373 30.8293 42.476 31.8075 42.9685 33.7896C43.3967 35.5131 44.2818 67.7499 44.9384 83.6199C45.0205 84.6067 45.4308 86.5802 42.2298 86.5802C40.6539 86.5802 17.3602 86.5802 5.04851 86.5802C2.33994 86.5802 2.33994 85.7908 2.33994 83.6199C2.33994 81.4491 3.48903 49.4952 4.06357 33.7896C4.06357 32.5476 4.55604 30.8293 7.75708 30.8293Z" stroke="#E5DFD9" stroke-width="0.9"/>
<path d="M8.24954 86.5802L9.23448 58.2114C9.23448 56.2294 10.4164 55.4978 12.1893 55.4978C13.9622 55.4978 28.0303 55.4978 34.8428 55.4978C35.9098 55.4978 38.0438 56.0406 38.0438 58.2114C38.0438 60.3822 38.8646 78.0284 39.275 86.5802" stroke="#E5DFD9" stroke-width="0.9"/>
<path d="M15.3903 55.7445V86.3335" stroke="#E5DFD9" stroke-width="0.9"/>
<path d="M32.3804 55.4978V86.3335" stroke="#E5DFD9" stroke-width="0.9"/>
<path d="M3.81732 41.6835C4.14563 42.5058 4.30979 44.1503 7.75706 44.1503C10.1209 44.1503 29.2615 44.1503 38.5363 44.1503C42.7223 44.1503 43.2147 42.415 43.461 41.4282" stroke="#E5DFD9" stroke-width="0.9"/>
<path d="M41.9401 60.4801L45.9001 57.0601L46.3501 87.7501H42.9301L40.0501 85.5001L39.6001 80.5501V73.1701L40.5901 65.7901L41.9401 60.4801Z" fill="#0C0C0C"/>
<path d="M82.0232 58.8172C72.2559 57.7294 56.56 57.8254 47.6245 58.8171C44.0263 59.2165 44.0263 59.7549 43.342 61.9163C41.3563 70.7178 40.8599 76.1723 40.8599 81.2549C40.8599 85.9418 44.602 86.0581 47.6245 86.3759C52.3405 86.8717 77.9673 86.3375 82.4351 86.0896C86.9029 85.8417 88.0199 84.5358 88.0199 81.2549C88.0199 77.2704 86.8243 64.9633 85.9092 61.9163C85.3009 59.8908 85.1896 59.1698 82.0232 58.8172Z" stroke="#E5DFD9" stroke-width="0.9"/>
<path d="M58.419 58.0187V54.5423C58.467 54.0628 58.9084 53.1038 60.2901 53.1038C61.6718 53.1038 66.527 53.1038 68.7818 53.1038C69.3575 53.0638 70.509 53.2956 70.509 54.5423C70.509 55.789 70.509 57.3794 70.509 58.0187" stroke="#E5DFD9" stroke-width="0.9"/>
<path d="M61.0097 62.7931H68.2061" stroke="#E5DFD9" stroke-width="0.9"/>
<path d="M51.2227 75.0909L51.2227 86.3759" stroke="#E5DFD9" stroke-width="0.9"/>
<path d="M77.4175 75.0909L77.4175 86.3759" stroke="#E5DFD9" stroke-width="0.9"/>
<path d="M64.6081 70.0433C68.8882 70.0434 72.362 73.532 72.362 77.8401C72.3618 82.1481 68.888 85.6369 64.6081 85.637C60.3281 85.637 56.8544 82.1482 56.8542 77.8401C56.8542 73.5319 60.328 70.0433 64.6081 70.0433Z" stroke="#E5DFD9" stroke-width="0.9"/>
</svg>
