<svg width="96" height="129" viewBox="0 0 96 129" fill="none" xmlns="http://www.w3.org/2000/svg">
<path d="M15.0985 126V116.38H16.1515V120.585H21.2345V116.38H22.294V126H21.2345V121.541H16.1515V126H15.0985ZM27.4245 126.117C26.7615 126.117 26.2394 125.946 25.858 125.603C25.481 125.261 25.2925 124.791 25.2925 124.193C25.2925 123.578 25.494 123.099 25.897 122.756C26.3044 122.41 26.9565 122.193 27.8535 122.106L29.745 121.905L29.8425 122.594L27.9185 122.802C27.3595 122.858 26.9565 122.995 26.7095 123.211C26.4669 123.424 26.3455 123.718 26.3455 124.095C26.3455 124.49 26.4582 124.791 26.6835 124.999C26.9089 125.207 27.2447 125.311 27.691 125.311C27.9987 125.311 28.3085 125.246 28.6205 125.116C28.9325 124.982 29.212 124.758 29.459 124.446V121.333C29.459 120.9 29.3919 120.566 29.2575 120.332C29.1232 120.094 28.9217 119.927 28.653 119.831C28.3844 119.736 28.0464 119.688 27.639 119.688C27.3747 119.688 27.0735 119.712 26.7355 119.76C26.4019 119.808 26.0682 119.888 25.7345 120V119.149C26.0379 119.049 26.3715 118.973 26.7355 118.921C27.1039 118.865 27.4505 118.837 27.7755 118.837C28.3735 118.837 28.8719 118.915 29.2705 119.071C29.6735 119.227 29.9747 119.491 30.174 119.864C30.3777 120.232 30.4795 120.737 30.4795 121.378V126H29.6085L29.5305 125.213H29.4655C29.2359 125.504 28.9412 125.727 28.5815 125.883C28.2262 126.039 27.8405 126.117 27.4245 126.117ZM33.6665 126V118.947H34.544L34.6155 119.74H34.687C34.973 119.45 35.3066 119.227 35.688 119.071C36.0693 118.915 36.4745 118.837 36.9035 118.837C37.3455 118.837 37.7355 118.919 38.0735 119.084C38.4158 119.244 38.6823 119.509 38.873 119.877C39.068 120.241 39.1655 120.728 39.1655 121.339V126H38.132V121.385C38.132 120.778 37.9976 120.358 37.729 120.124C37.4646 119.886 37.105 119.766 36.65 119.766C36.442 119.766 36.221 119.797 35.987 119.857C35.753 119.918 35.5233 120.018 35.298 120.156C35.077 120.295 34.8798 120.479 34.7065 120.709V126H33.6665ZM44.7601 126.124C44.2488 126.124 43.783 126.009 43.3626 125.779C42.9423 125.545 42.6065 125.172 42.3551 124.661C42.1081 124.15 41.9846 123.469 41.9846 122.62C41.9846 121.771 42.119 121.066 42.3876 120.507C42.6606 119.948 43.0615 119.53 43.5901 119.253C44.1188 118.976 44.7688 118.837 45.5401 118.837C45.7395 118.837 45.9388 118.846 46.1381 118.863C46.3375 118.88 46.5216 118.902 46.6906 118.928V115.496H47.7306V126H46.8466L46.7751 125.239H46.7036C46.4956 125.495 46.2248 125.707 45.8911 125.876C45.5618 126.041 45.1848 126.124 44.7601 126.124ZM44.9941 125.226C45.3105 125.226 45.6203 125.157 45.9236 125.018C46.227 124.88 46.4826 124.659 46.6906 124.355V119.812C46.5346 119.773 46.3526 119.743 46.1446 119.721C45.9366 119.699 45.7308 119.688 45.5271 119.688C44.7081 119.688 44.0885 119.909 43.6681 120.351C43.2521 120.793 43.0441 121.519 43.0441 122.529C43.0441 123.222 43.1265 123.766 43.2911 124.16C43.4601 124.55 43.6898 124.826 43.9801 124.986C44.2748 125.146 44.6128 125.226 44.9941 125.226ZM53.1705 126.124C52.8022 126.124 52.4295 126.095 52.0525 126.039C51.6755 125.987 51.3224 125.909 50.993 125.805V115.496H52.033V119.675H52.0915C52.3082 119.428 52.5812 119.227 52.9105 119.071C53.2442 118.915 53.6234 118.837 54.048 118.837C54.5377 118.837 54.9862 118.952 55.3935 119.181C55.8009 119.407 56.1259 119.777 56.3685 120.293C56.6155 120.804 56.739 121.487 56.739 122.34C56.739 123.614 56.4357 124.563 55.829 125.188C55.2267 125.812 54.3405 126.124 53.1705 126.124ZM53.2485 125.272C54.0459 125.272 54.6504 125.051 55.062 124.609C55.4737 124.167 55.6795 123.441 55.6795 122.431C55.6795 121.729 55.595 121.183 55.426 120.793C55.257 120.403 55.0252 120.13 54.7305 119.974C54.4402 119.814 54.1109 119.734 53.7425 119.734C53.4219 119.734 53.1077 119.801 52.8 119.935C52.4967 120.065 52.241 120.271 52.033 120.553V125.116C52.189 125.159 52.3732 125.196 52.5855 125.226C52.8022 125.257 53.0232 125.272 53.2485 125.272ZM61.3794 126.117C60.7164 126.117 60.1942 125.946 59.8129 125.603C59.4359 125.261 59.2474 124.791 59.2474 124.193C59.2474 123.578 59.4489 123.099 59.8519 122.756C60.2592 122.41 60.9114 122.193 61.8084 122.106L63.6999 121.905L63.7974 122.594L61.8734 122.802C61.3144 122.858 60.9114 122.995 60.6644 123.211C60.4217 123.424 60.3004 123.718 60.3004 124.095C60.3004 124.49 60.4131 124.791 60.6384 124.999C60.8637 125.207 61.1996 125.311 61.6459 125.311C61.9536 125.311 62.2634 125.246 62.5754 125.116C62.8874 124.982 63.1669 124.758 63.4139 124.446V121.333C63.4139 120.9 63.3467 120.566 63.2124 120.332C63.0781 120.094 62.8766 119.927 62.6079 119.831C62.3392 119.736 62.0012 119.688 61.5939 119.688C61.3296 119.688 61.0284 119.712 60.6904 119.76C60.3567 119.808 60.0231 119.888 59.6894 120V119.149C59.9927 119.049 60.3264 118.973 60.6904 118.921C61.0587 118.865 61.4054 118.837 61.7304 118.837C62.3284 118.837 62.8267 118.915 63.2254 119.071C63.6284 119.227 63.9296 119.491 64.1289 119.864C64.3326 120.232 64.4344 120.737 64.4344 121.378V126H63.5634L63.4854 125.213H63.4204C63.1907 125.504 62.8961 125.727 62.5364 125.883C62.1811 126.039 61.7954 126.117 61.3794 126.117ZM69.7793 128.99C69.4543 128.99 69.1055 128.962 68.7328 128.906C68.3645 128.854 68.02 128.776 67.6993 128.672V127.801C68.0677 127.913 68.4187 127.996 68.7523 128.048C69.0903 128.104 69.4132 128.132 69.7208 128.132C70.4835 128.132 71.0468 127.967 71.4108 127.638C71.7748 127.313 71.9568 126.748 71.9568 125.941V125.252H71.8983C71.686 125.499 71.413 125.701 71.0793 125.857C70.75 126.013 70.373 126.091 69.9483 126.091C69.4587 126.091 69.0102 125.978 68.6028 125.753C68.1955 125.523 67.8683 125.155 67.6213 124.648C67.3743 124.137 67.2508 123.458 67.2508 122.613C67.2508 121.348 67.552 120.403 68.1543 119.779C68.761 119.151 69.6515 118.837 70.8258 118.837C71.0685 118.837 71.3155 118.85 71.5668 118.876C71.8225 118.902 72.0717 118.939 72.3143 118.987C72.557 119.034 72.7845 119.09 72.9968 119.155V125.786C72.9968 126.93 72.7282 127.749 72.1908 128.243C71.6535 128.741 70.8497 128.99 69.7793 128.99ZM70.2538 125.2C70.5702 125.2 70.88 125.133 71.1833 124.999C71.491 124.865 71.7488 124.659 71.9568 124.381V119.831C71.8008 119.792 71.6167 119.76 71.4043 119.734C71.192 119.704 70.971 119.688 70.7413 119.688C69.9527 119.688 69.3503 119.909 68.9343 120.351C68.5183 120.789 68.3103 121.511 68.3103 122.516C68.3103 123.214 68.3948 123.757 68.5638 124.147C68.7328 124.537 68.9625 124.81 69.2528 124.966C69.5475 125.122 69.8812 125.2 70.2538 125.2ZM77.9427 126.124C77.5874 126.124 77.2472 126.1 76.9222 126.052C76.6016 126.004 76.2896 125.933 75.9862 125.837V125.005C76.3329 125.109 76.6644 125.185 76.9807 125.233C77.2971 125.276 77.6177 125.298 77.9427 125.298C78.5537 125.298 78.9957 125.194 79.2687 124.986C79.5461 124.778 79.6847 124.485 79.6847 124.108C79.6847 123.788 79.6024 123.543 79.4377 123.374C79.2731 123.201 78.9936 123.073 78.5992 122.99L77.6437 122.795C77.0024 122.657 76.5431 122.429 76.2657 122.113C75.9927 121.792 75.8562 121.381 75.8562 120.878C75.8562 120.284 76.0837 119.797 76.5387 119.415C76.9981 119.03 77.7022 118.837 78.6512 118.837C78.9546 118.837 79.2427 118.854 79.5157 118.889C79.7931 118.924 80.0596 118.976 80.3152 119.045V119.883C80.0292 119.805 79.7541 119.749 79.4897 119.714C79.2297 119.68 78.9567 119.662 78.6707 119.662C78.2244 119.662 77.8669 119.717 77.5982 119.825C77.3339 119.929 77.1432 120.072 77.0262 120.254C76.9092 120.432 76.8507 120.631 76.8507 120.852C76.8507 121.129 76.9287 121.359 77.0847 121.541C77.2407 121.723 77.5137 121.857 77.9037 121.944L78.8592 122.139C79.5092 122.273 79.9751 122.494 80.2567 122.802C80.5427 123.11 80.6857 123.528 80.6857 124.056C80.6857 124.693 80.4517 125.198 79.9837 125.571C79.5201 125.939 78.8397 126.124 77.9427 126.124Z" fill="#E5DFD9"/>
<path d="M75.6215 43.3317H19.741C9.75362 43.3317 8.10968 48.0002 7.48148 53.0264C6.34106 62.1507 4.35403 82.8593 3.77512 86.6724C3.19621 90.4854 4.62173 94.6562 7.48148 94.6562C30.9551 94.6562 82.3983 93.8095 86.7319 93.8095C91.0655 93.8095 93.0042 89.9152 92.1576 86.6724C91.2072 78.0233 89.0784 59.1853 88.1661 53.0264C87.2538 46.8674 84.451 43.3317 75.6215 43.3317Z" stroke="#E5DFD9" stroke-width="1.5"/>
<path d="M38.5492 86.6726H58.2214" stroke="#E5DFD9" stroke-width="1.5"/>
<path d="M23.1536 43.1529C32.8471 -12.1635 61.9278 -13.0189 72.7618 43.1529" stroke="#E5DFD9" stroke-width="1.5"/>
<path d="M27.7152 43.3316C35.626 -7.97554 59.3586 -8.76897 68.2001 43.3316" stroke="#E5DFD9" stroke-width="1.5"/>
</svg>
