<svg width="111" height="130" viewBox="0 0 111 130" fill="none" xmlns="http://www.w3.org/2000/svg">
<path d="M1.1245 127V117.38H2.379L5.8565 124.848H5.629L9.061 117.38H10.3155V127H9.321V118.296H9.62L6.1945 125.667H5.2455L1.781 118.296H2.119V127H1.1245ZM16.6905 127.124C15.9581 127.124 15.3428 127 14.8445 126.753C14.3505 126.502 13.9778 126.109 13.7265 125.576C13.4751 125.039 13.3495 124.337 13.3495 123.47C13.3495 122.643 13.4643 121.96 13.694 121.423C13.928 120.886 14.2573 120.487 14.682 120.227C15.111 119.967 15.618 119.837 16.203 119.837C16.7793 119.837 17.269 119.969 17.672 120.233C18.0793 120.493 18.3891 120.894 18.6015 121.436C18.8138 121.973 18.92 122.66 18.92 123.496V123.815H13.915V123.106H18.153L17.9255 123.262C17.9255 122.604 17.8561 122.079 17.7175 121.689C17.5831 121.299 17.386 121.02 17.126 120.851C16.8703 120.678 16.5583 120.591 16.19 120.591C15.826 120.591 15.5096 120.675 15.241 120.844C14.9723 121.013 14.7643 121.293 14.617 121.683C14.474 122.073 14.4025 122.599 14.4025 123.262V123.626C14.4025 124.276 14.4891 124.796 14.6625 125.186C14.8401 125.572 15.1066 125.852 15.462 126.025C15.8173 126.194 16.268 126.278 16.814 126.278C17.0826 126.278 17.36 126.255 17.646 126.207C17.9363 126.155 18.244 126.083 18.569 125.992V126.844C18.231 126.939 17.9081 127.009 17.6005 127.052C17.2971 127.1 16.9938 127.124 16.6905 127.124ZM23.3939 127.124C23.0386 127.124 22.6984 127.1 22.3734 127.052C22.0527 127.004 21.7407 126.933 21.4374 126.837V126.005C21.7841 126.109 22.1156 126.185 22.4319 126.233C22.7482 126.276 23.0689 126.298 23.3939 126.298C24.0049 126.298 24.4469 126.194 24.7199 125.986C24.9972 125.778 25.1359 125.485 25.1359 125.108C25.1359 124.788 25.0536 124.543 24.8889 124.374C24.7242 124.201 24.4447 124.073 24.0504 123.99L23.0949 123.795C22.4536 123.657 21.9942 123.429 21.7169 123.113C21.4439 122.792 21.3074 122.381 21.3074 121.878C21.3074 121.284 21.5349 120.797 21.9899 120.415C22.4492 120.03 23.1534 119.837 24.1024 119.837C24.4057 119.837 24.6939 119.854 24.9669 119.889C25.2442 119.924 25.5107 119.976 25.7664 120.045V120.883C25.4804 120.805 25.2052 120.749 24.9409 120.714C24.6809 120.68 24.4079 120.662 24.1219 120.662C23.6756 120.662 23.3181 120.717 23.0494 120.825C22.7851 120.929 22.5944 121.072 22.4774 121.254C22.3604 121.432 22.3019 121.631 22.3019 121.852C22.3019 122.129 22.3799 122.359 22.5359 122.541C22.6919 122.723 22.9649 122.857 23.3549 122.944L24.3104 123.139C24.9604 123.273 25.4262 123.494 25.7079 123.802C25.9939 124.11 26.1369 124.528 26.1369 125.056C26.1369 125.693 25.9029 126.198 25.4349 126.571C24.9712 126.939 24.2909 127.124 23.3939 127.124ZM30.5464 127.124C30.1911 127.124 29.8509 127.1 29.5259 127.052C29.2053 127.004 28.8933 126.933 28.5899 126.837V126.005C28.9366 126.109 29.2681 126.185 29.5844 126.233C29.9008 126.276 30.2214 126.298 30.5464 126.298C31.1574 126.298 31.5994 126.194 31.8724 125.986C32.1498 125.778 32.2884 125.485 32.2884 125.108C32.2884 124.788 32.2061 124.543 32.0414 124.374C31.8768 124.201 31.5973 124.073 31.2029 123.99L30.2474 123.795C29.6061 123.657 29.1468 123.429 28.8694 123.113C28.5964 122.792 28.4599 122.381 28.4599 121.878C28.4599 121.284 28.6874 120.797 29.1424 120.415C29.6018 120.03 30.3059 119.837 31.2549 119.837C31.5583 119.837 31.8464 119.854 32.1194 119.889C32.3968 119.924 32.6633 119.976 32.9189 120.045V120.883C32.6329 120.805 32.3578 120.749 32.0934 120.714C31.8334 120.68 31.5604 120.662 31.2744 120.662C30.8281 120.662 30.4706 120.717 30.2019 120.825C29.9376 120.929 29.7469 121.072 29.6299 121.254C29.5129 121.432 29.4544 121.631 29.4544 121.852C29.4544 122.129 29.5324 122.359 29.6884 122.541C29.8444 122.723 30.1174 122.857 30.5074 122.944L31.4629 123.139C32.1129 123.273 32.5788 123.494 32.8604 123.802C33.1464 124.11 33.2894 124.528 33.2894 125.056C33.2894 125.693 33.0554 126.198 32.5874 126.571C32.1238 126.939 31.4434 127.124 30.5464 127.124ZM38.986 127.124C38.2537 127.124 37.6383 127 37.14 126.753C36.646 126.502 36.2733 126.109 36.022 125.576C35.7707 125.039 35.645 124.337 35.645 123.47C35.645 122.643 35.7598 121.96 35.9895 121.423C36.2235 120.886 36.5528 120.487 36.9775 120.227C37.4065 119.967 37.9135 119.837 38.4985 119.837C39.0748 119.837 39.5645 119.969 39.9675 120.233C40.3748 120.493 40.6847 120.894 40.897 121.436C41.1093 121.973 41.2155 122.66 41.2155 123.496V123.815H36.2105V123.106H40.4485L40.221 123.262C40.221 122.604 40.1517 122.079 40.013 121.689C39.8787 121.299 39.6815 121.02 39.4215 120.851C39.1658 120.678 38.8538 120.591 38.4855 120.591C38.1215 120.591 37.8052 120.675 37.5365 120.844C37.2678 121.013 37.0598 121.293 36.9125 121.683C36.7695 122.073 36.698 122.599 36.698 123.262V123.626C36.698 124.276 36.7847 124.796 36.958 125.186C37.1357 125.572 37.4022 125.852 37.7575 126.025C38.1128 126.194 38.5635 126.278 39.1095 126.278C39.3782 126.278 39.6555 126.255 39.9415 126.207C40.2318 126.155 40.5395 126.083 40.8645 125.992V126.844C40.5265 126.939 40.2037 127.009 39.896 127.052C39.5927 127.1 39.2893 127.124 38.986 127.124ZM44.0059 127V119.947H44.8834L44.9549 120.74H45.0264C45.3124 120.45 45.6461 120.227 46.0274 120.071C46.4087 119.915 46.8139 119.837 47.2429 119.837C47.6849 119.837 48.0749 119.919 48.4129 120.084C48.7552 120.244 49.0217 120.509 49.2124 120.877C49.4074 121.241 49.5049 121.728 49.5049 122.339V127H48.4714V122.385C48.4714 121.778 48.3371 121.358 48.0684 121.124C47.8041 120.886 47.4444 120.766 46.9894 120.766C46.7814 120.766 46.5604 120.797 46.3264 120.857C46.0924 120.918 45.8627 121.018 45.6374 121.156C45.4164 121.295 45.2192 121.479 45.0459 121.709V127H44.0059ZM54.8526 129.99C54.5276 129.99 54.1788 129.962 53.8061 129.906C53.4378 129.854 53.0933 129.776 52.7726 129.672V128.801C53.1409 128.913 53.4919 128.996 53.8256 129.048C54.1636 129.104 54.4864 129.132 54.7941 129.132C55.5568 129.132 56.1201 128.967 56.4841 128.638C56.8481 128.313 57.0301 127.748 57.0301 126.941V126.252H56.9716C56.7593 126.499 56.4863 126.701 56.1526 126.857C55.8233 127.013 55.4463 127.091 55.0216 127.091C54.5319 127.091 54.0834 126.978 53.6761 126.753C53.2688 126.523 52.9416 126.155 52.6946 125.648C52.4476 125.137 52.3241 124.458 52.3241 123.613C52.3241 122.348 52.6253 121.403 53.2276 120.779C53.8343 120.151 54.7248 119.837 55.8991 119.837C56.1418 119.837 56.3888 119.85 56.6401 119.876C56.8958 119.902 57.1449 119.939 57.3876 119.987C57.6303 120.034 57.8578 120.09 58.0701 120.155V126.786C58.0701 127.93 57.8014 128.749 57.2641 129.243C56.7268 129.741 55.9229 129.99 54.8526 129.99ZM55.3271 126.2C55.6434 126.2 55.9533 126.133 56.2566 125.999C56.5643 125.865 56.8221 125.659 57.0301 125.381V120.831C56.8741 120.792 56.6899 120.76 56.4776 120.734C56.2653 120.704 56.0443 120.688 55.8146 120.688C55.0259 120.688 54.4236 120.909 54.0076 121.351C53.5916 121.789 53.3836 122.511 53.3836 123.516C53.3836 124.214 53.4681 124.757 53.6371 125.147C53.8061 125.537 54.0358 125.81 54.3261 125.966C54.6208 126.122 54.9544 126.2 55.3271 126.2ZM64.303 127.124C63.5706 127.124 62.9553 127 62.457 126.753C61.963 126.502 61.5903 126.109 61.339 125.576C61.0876 125.039 60.962 124.337 60.962 123.47C60.962 122.643 61.0768 121.96 61.3065 121.423C61.5405 120.886 61.8698 120.487 62.2945 120.227C62.7235 119.967 63.2305 119.837 63.8155 119.837C64.3918 119.837 64.8815 119.969 65.2845 120.233C65.6918 120.493 66.0016 120.894 66.214 121.436C66.4263 121.973 66.5325 122.66 66.5325 123.496V123.815H61.5275V123.106H65.7655L65.538 123.262C65.538 122.604 65.4686 122.079 65.33 121.689C65.1956 121.299 64.9985 121.02 64.7385 120.851C64.4828 120.678 64.1708 120.591 63.8025 120.591C63.4385 120.591 63.1221 120.675 62.8535 120.844C62.5848 121.013 62.3768 121.293 62.2295 121.683C62.0865 122.073 62.015 122.599 62.015 123.262V123.626C62.015 124.276 62.1016 124.796 62.275 125.186C62.4526 125.572 62.7191 125.852 63.0745 126.025C63.4298 126.194 63.8805 126.278 64.4265 126.278C64.6951 126.278 64.9725 126.255 65.2585 126.207C65.5488 126.155 65.8565 126.083 66.1815 125.992V126.844C65.8435 126.939 65.5206 127.009 65.213 127.052C64.9096 127.1 64.6063 127.124 64.303 127.124ZM69.3229 127V119.947H70.1939L70.2784 120.89H70.3434C70.5861 120.556 70.8894 120.305 71.2534 120.136C71.6217 119.963 72.0052 119.876 72.4039 119.876C72.5122 119.876 72.6097 119.88 72.6964 119.889C72.7874 119.898 72.8762 119.911 72.9629 119.928V120.89C72.8632 120.873 72.7636 120.862 72.6639 120.857C72.5686 120.853 72.4646 120.851 72.3519 120.851C72.1222 120.851 71.8817 120.888 71.6304 120.961C71.3834 121.031 71.1494 121.141 70.9284 121.293C70.7074 121.44 70.5189 121.627 70.3629 121.852V127H69.3229ZM82.2835 127.085C82.0278 127.085 81.7678 127.078 81.5035 127.065C81.2435 127.052 80.9813 127.035 80.717 127.013C80.4527 126.991 80.184 126.963 79.911 126.928V117.542C80.1753 117.486 80.4462 117.438 80.7235 117.399C81.0052 117.36 81.2977 117.33 81.601 117.308C81.9043 117.287 82.2228 117.276 82.5565 117.276C83.4188 117.276 84.1208 117.371 84.6625 117.562C85.2085 117.748 85.6093 118.032 85.865 118.413C86.1207 118.79 86.2485 119.267 86.2485 119.843C86.2485 120.212 86.1813 120.554 86.047 120.87C85.9127 121.182 85.7003 121.445 85.41 121.657C85.1197 121.869 84.7405 122.012 84.2725 122.086L84.2855 121.995C85.0395 122.082 85.6007 122.335 85.969 122.755C86.3373 123.176 86.5215 123.72 86.5215 124.387C86.5215 124.825 86.4435 125.212 86.2875 125.55C86.1358 125.884 85.891 126.166 85.553 126.395C85.2193 126.621 84.7817 126.792 84.24 126.909C83.7027 127.026 83.0505 127.085 82.2835 127.085ZM82.498 126.246C83.2563 126.246 83.8543 126.177 84.292 126.038C84.734 125.899 85.0482 125.691 85.2345 125.414C85.4252 125.132 85.5205 124.779 85.5205 124.354C85.5205 123.717 85.319 123.247 84.916 122.944C84.5173 122.641 83.8847 122.489 83.018 122.489H80.8015V121.637H82.8295C83.4102 121.637 83.876 121.572 84.227 121.442C84.5823 121.312 84.838 121.117 84.994 120.857C85.1543 120.597 85.2345 120.272 85.2345 119.882C85.2345 119.254 85.0373 118.803 84.643 118.53C84.253 118.253 83.5878 118.114 82.6475 118.114C82.2965 118.114 81.9867 118.127 81.718 118.153C81.4493 118.175 81.1937 118.208 80.951 118.251V126.155C81.2023 126.19 81.4515 126.213 81.6985 126.226C81.9498 126.239 82.2163 126.246 82.498 126.246ZM91.031 127.117C90.368 127.117 89.8458 126.946 89.4645 126.603C89.0875 126.261 88.899 125.791 88.899 125.193C88.899 124.578 89.1005 124.099 89.5035 123.756C89.9108 123.41 90.563 123.193 91.46 123.106L93.3515 122.905L93.449 123.594L91.525 123.802C90.966 123.858 90.563 123.995 90.316 124.211C90.0733 124.424 89.952 124.718 89.952 125.095C89.952 125.49 90.0646 125.791 90.29 125.999C90.5153 126.207 90.8511 126.311 91.2975 126.311C91.6051 126.311 91.915 126.246 92.227 126.116C92.539 125.982 92.8185 125.758 93.0655 125.446V122.333C93.0655 121.9 92.9983 121.566 92.864 121.332C92.7296 121.094 92.5281 120.927 92.2595 120.831C91.9908 120.736 91.6528 120.688 91.2455 120.688C90.9811 120.688 90.68 120.712 90.342 120.76C90.0083 120.808 89.6746 120.888 89.341 121V120.149C89.6443 120.049 89.978 119.973 90.342 119.921C90.7103 119.865 91.057 119.837 91.382 119.837C91.98 119.837 92.4783 119.915 92.877 120.071C93.28 120.227 93.5811 120.491 93.7805 120.864C93.9841 121.232 94.086 121.737 94.086 122.378V127H93.215L93.137 126.213H93.072C92.8423 126.504 92.5476 126.727 92.188 126.883C91.8326 127.039 91.447 127.117 91.031 127.117ZM99.4309 129.99C99.1059 129.99 98.7571 129.962 98.3844 129.906C98.0161 129.854 97.6716 129.776 97.3509 129.672V128.801C97.7192 128.913 98.0702 128.996 98.4039 129.048C98.7419 129.104 99.0647 129.132 99.3724 129.132C100.135 129.132 100.698 128.967 101.062 128.638C101.426 128.313 101.608 127.748 101.608 126.941V126.252H101.55C101.338 126.499 101.065 126.701 100.731 126.857C100.402 127.013 100.025 127.091 99.5999 127.091C99.1102 127.091 98.6617 126.978 98.2544 126.753C97.8471 126.523 97.5199 126.155 97.2729 125.648C97.0259 125.137 96.9024 124.458 96.9024 123.613C96.9024 122.348 97.2036 121.403 97.8059 120.779C98.4126 120.151 99.3031 119.837 100.477 119.837C100.72 119.837 100.967 119.85 101.218 119.876C101.474 119.902 101.723 119.939 101.966 119.987C102.209 120.034 102.436 120.09 102.648 120.155V126.786C102.648 127.93 102.38 128.749 101.842 129.243C101.305 129.741 100.501 129.99 99.4309 129.99ZM99.9054 126.2C100.222 126.2 100.532 126.133 100.835 125.999C101.143 125.865 101.4 125.659 101.608 125.381V120.831C101.452 120.792 101.268 120.76 101.056 120.734C100.844 120.704 100.623 120.688 100.393 120.688C99.6042 120.688 99.0019 120.909 98.5859 121.351C98.1699 121.789 97.9619 122.511 97.9619 123.516C97.9619 124.214 98.0464 124.757 98.2154 125.147C98.3844 125.537 98.6141 125.81 98.9044 125.966C99.1991 126.122 99.5327 126.2 99.9054 126.2ZM107.594 127.124C107.239 127.124 106.899 127.1 106.574 127.052C106.253 127.004 105.941 126.933 105.638 126.837V126.005C105.984 126.109 106.316 126.185 106.632 126.233C106.949 126.276 107.269 126.298 107.594 126.298C108.205 126.298 108.647 126.194 108.92 125.986C109.198 125.778 109.336 125.485 109.336 125.108C109.336 124.788 109.254 124.543 109.089 124.374C108.925 124.201 108.645 124.073 108.251 123.99L107.295 123.795C106.654 123.657 106.195 123.429 105.917 123.113C105.644 122.792 105.508 122.381 105.508 121.878C105.508 121.284 105.735 120.797 106.19 120.415C106.65 120.03 107.354 119.837 108.303 119.837C108.606 119.837 108.894 119.854 109.167 119.889C109.445 119.924 109.711 119.976 109.967 120.045V120.883C109.681 120.805 109.406 120.749 109.141 120.714C108.881 120.68 108.608 120.662 108.322 120.662C107.876 120.662 107.518 120.717 107.25 120.825C106.985 120.929 106.795 121.072 106.678 121.254C106.561 121.432 106.502 121.631 106.502 121.852C106.502 122.129 106.58 122.359 106.736 122.541C106.892 122.723 107.165 122.857 107.555 122.944L108.511 123.139C109.161 123.273 109.627 123.494 109.908 123.802C110.194 124.11 110.337 124.528 110.337 125.056C110.337 125.693 110.103 126.198 109.635 126.571C109.172 126.939 108.491 127.124 107.594 127.124Z" fill="#E5DFD9"/>
<path d="M8.72803 64.3198C8.91537 66.1469 10.8638 70.0752 16.0345 70.0752C21.2052 70.0752 70.6457 70.0752 94.7196 70.0752C96.5931 70.1665 100.115 68.9241 101.464 64.3198" stroke="#E5DFD9" stroke-width="1.5"/>
<path d="M60.376 46.4638H49.816" stroke="#E5DFD9" stroke-width="1.5"/>
<path d="M41.7521 39.744C44.8554 28.2938 45.7018 27.456 48.523 27.456H63.4755C67.1431 27.456 66.5789 28.2938 69.4001 39.744" stroke="#E5DFD9" stroke-width="1.5"/>
<path d="M101.464 39.744H8.72803V89.0354C8.72803 92.6407 11.8192 95.232 14.9104 95.232H95.8437C100.34 95.232 101.464 90.5376 101.464 88.1904V39.744Z" stroke="#E5DFD9" stroke-width="1.5"/>
<rect x="33.8979" y="85.6498" width="4.06801" height="14.436" transform="rotate(-180 33.8979 85.6498)" stroke="#E5DFD9" stroke-width="1.5"/>
<rect x="77.6381" y="59.31" width="4.068" height="9.636" stroke="#E5DFD9" stroke-width="1.5"/>
<rect x="29.8301" y="59.31" width="4.068" height="9.636" stroke="#E5DFD9" stroke-width="1.5"/>
<rect x="81.7061" y="85.6498" width="4.06801" height="14.436" transform="rotate(-180 81.7061 85.6498)" stroke="#E5DFD9" stroke-width="1.5"/>
</svg>
