<svg width="41" height="128" viewBox="0 0 41 128" fill="none" xmlns="http://www.w3.org/2000/svg">
<path d="M13.471 125.085C13.2153 125.085 12.9553 125.078 12.691 125.065C12.431 125.052 12.1688 125.035 11.9045 125.013C11.6402 124.991 11.3715 124.963 11.0985 124.928V115.542C11.3628 115.486 11.6337 115.438 11.911 115.399C12.1927 115.36 12.4852 115.33 12.7885 115.308C13.0918 115.287 13.4103 115.276 13.744 115.276C14.6063 115.276 15.3083 115.371 15.85 115.562C16.396 115.748 16.7968 116.032 17.0525 116.413C17.3082 116.79 17.436 117.267 17.436 117.843C17.436 118.212 17.3688 118.554 17.2345 118.87C17.1002 119.182 16.8878 119.445 16.5975 119.657C16.3072 119.869 15.928 120.012 15.46 120.086L15.473 119.995C16.227 120.082 16.7882 120.335 17.1565 120.755C17.5248 121.176 17.709 121.72 17.709 122.387C17.709 122.825 17.631 123.212 17.475 123.55C17.3233 123.884 17.0785 124.166 16.7405 124.395C16.4068 124.621 15.9692 124.792 15.4275 124.909C14.8902 125.026 14.238 125.085 13.471 125.085ZM13.6855 124.246C14.4438 124.246 15.0418 124.177 15.4795 124.038C15.9215 123.899 16.2357 123.691 16.422 123.414C16.6127 123.132 16.708 122.779 16.708 122.354C16.708 121.717 16.5065 121.247 16.1035 120.944C15.7048 120.641 15.0722 120.489 14.2055 120.489H11.989V119.637H14.017C14.5977 119.637 15.0635 119.572 15.4145 119.442C15.7698 119.312 16.0255 119.117 16.1815 118.857C16.3418 118.597 16.422 118.272 16.422 117.882C16.422 117.254 16.2248 116.803 15.8305 116.53C15.4405 116.253 14.7753 116.114 13.835 116.114C13.484 116.114 13.1742 116.127 12.9055 116.153C12.6368 116.175 12.3812 116.208 12.1385 116.251V124.155C12.3898 124.19 12.639 124.213 12.886 124.226C13.1373 124.239 13.4038 124.246 13.6855 124.246ZM22.6475 125.117C22.2098 125.117 21.822 125.037 21.484 124.876C21.146 124.716 20.8795 124.454 20.6845 124.09C20.4895 123.726 20.392 123.238 20.392 122.627V117.947H21.432V122.582C21.432 123.184 21.5663 123.605 21.835 123.843C22.1036 124.077 22.4503 124.194 22.875 124.194C23.0873 124.194 23.3083 124.161 23.538 124.096C23.772 124.031 23.9973 123.93 24.214 123.791C24.4306 123.652 24.6235 123.472 24.7925 123.251V117.947H25.8325V125H24.955L24.8835 124.226H24.8185C24.5238 124.521 24.1901 124.744 23.8175 124.896C23.4448 125.043 23.0548 125.117 22.6475 125.117ZM31.8447 125.124C31.1773 125.124 30.6118 124.998 30.1482 124.746C29.6845 124.491 29.3313 124.096 29.0887 123.563C28.846 123.026 28.7247 122.331 28.7247 121.477C28.7247 120.623 28.8547 119.93 29.1147 119.397C29.379 118.86 29.7625 118.465 30.2652 118.214C30.7678 117.963 31.3832 117.837 32.1112 117.837C32.3582 117.837 32.6052 117.852 32.8522 117.882C33.0992 117.913 33.3353 117.958 33.5607 118.019V118.903C33.331 118.842 33.1035 118.797 32.8782 118.766C32.6572 118.736 32.4383 118.721 32.2217 118.721C31.68 118.721 31.2293 118.81 30.8697 118.987C30.51 119.165 30.2413 119.453 30.0637 119.852C29.8903 120.251 29.8037 120.784 29.8037 121.451C29.8037 122.136 29.886 122.682 30.0507 123.089C30.2153 123.496 30.4602 123.791 30.7852 123.973C31.1145 124.151 31.5175 124.239 31.9942 124.239C32.2238 124.239 32.4643 124.218 32.7157 124.174C32.967 124.127 33.2487 124.053 33.5607 123.953V124.831C33.2833 124.931 32.9995 125.004 32.7092 125.052C32.4232 125.1 32.135 125.124 31.8447 125.124ZM40.8655 125L38.0315 121.386L40.6705 117.947H41.8275L39.117 121.516V121.23L42.042 125H40.8655ZM37.0435 121.821V120.95H38.48V121.821H37.0435ZM36.1335 125V114.496H37.1735V125H36.1335ZM47.0309 125.124C46.2986 125.124 45.6832 125 45.1849 124.753C44.6909 124.502 44.3182 124.109 44.0669 123.576C43.8156 123.039 43.6899 122.337 43.6899 121.47C43.6899 120.643 43.8047 119.96 44.0344 119.423C44.2684 118.886 44.5977 118.487 45.0224 118.227C45.4514 117.967 45.9584 117.837 46.5434 117.837C47.1197 117.837 47.6094 117.969 48.0124 118.233C48.4197 118.493 48.7296 118.894 48.9419 119.436C49.1542 119.973 49.2604 120.66 49.2604 121.496V121.815H44.2554V121.106H48.4934L48.2659 121.262C48.2659 120.604 48.1966 120.079 48.0579 119.689C47.9236 119.299 47.7264 119.02 47.4664 118.851C47.2107 118.678 46.8987 118.591 46.5304 118.591C46.1664 118.591 45.8501 118.675 45.5814 118.844C45.3127 119.013 45.1047 119.293 44.9574 119.683C44.8144 120.073 44.7429 120.599 44.7429 121.262V121.626C44.7429 122.276 44.8296 122.796 45.0029 123.186C45.1806 123.572 45.4471 123.852 45.8024 124.025C46.1577 124.194 46.6084 124.278 47.1544 124.278C47.4231 124.278 47.7004 124.255 47.9864 124.207C48.2767 124.155 48.5844 124.083 48.9094 123.992V124.844C48.5714 124.939 48.2486 125.009 47.9409 125.052C47.6376 125.1 47.3342 125.124 47.0309 125.124ZM54.7037 125.124C53.9844 125.124 53.4254 124.939 53.0268 124.571C52.6281 124.198 52.4288 123.605 52.4288 122.79V117.947L52.5978 115.38H53.4688V122.621C53.4688 123.215 53.5901 123.631 53.8328 123.869C54.0798 124.107 54.4459 124.226 54.9313 124.226C55.0613 124.226 55.1956 124.218 55.3343 124.2C55.4729 124.179 55.6246 124.151 55.7893 124.116V124.993C55.6159 125.037 55.4383 125.069 55.2563 125.091C55.0743 125.113 54.8901 125.124 54.7037 125.124ZM51.1028 118.805V117.947H55.6853V118.805H51.1028ZM65.1384 125.085C64.8827 125.085 64.6227 125.078 64.3584 125.065C64.0984 125.052 63.8362 125.035 63.5719 125.013C63.3075 124.991 63.0389 124.963 62.7659 124.928V115.542C63.0302 115.486 63.301 115.438 63.5784 115.399C63.86 115.36 64.1525 115.33 64.4559 115.308C64.7592 115.287 65.0777 115.276 65.4114 115.276C66.2737 115.276 66.9757 115.371 67.5174 115.562C68.0634 115.748 68.4642 116.032 68.7199 116.413C68.9755 116.79 69.1034 117.267 69.1034 117.843C69.1034 118.212 69.0362 118.554 68.9019 118.87C68.7675 119.182 68.5552 119.445 68.2649 119.657C67.9745 119.869 67.5954 120.012 67.1274 120.086L67.1404 119.995C67.8944 120.082 68.4555 120.335 68.8239 120.755C69.1922 121.176 69.3764 121.72 69.3764 122.387C69.3764 122.825 69.2984 123.212 69.1424 123.55C68.9907 123.884 68.7459 124.166 68.4079 124.395C68.0742 124.621 67.6365 124.792 67.0949 124.909C66.5575 125.026 65.9054 125.085 65.1384 125.085ZM65.3529 124.246C66.1112 124.246 66.7092 124.177 67.1469 124.038C67.5889 123.899 67.903 123.691 68.0894 123.414C68.28 123.132 68.3754 122.779 68.3754 122.354C68.3754 121.717 68.1739 121.247 67.7709 120.944C67.3722 120.641 66.7395 120.489 65.8729 120.489H63.6564V119.637H65.6844C66.265 119.637 66.7309 119.572 67.0819 119.442C67.4372 119.312 67.6929 119.117 67.8489 118.857C68.0092 118.597 68.0894 118.272 68.0894 117.882C68.0894 117.254 67.8922 116.803 67.4979 116.53C67.1079 116.253 66.4427 116.114 65.5024 116.114C65.1514 116.114 64.8415 116.127 64.5729 116.153C64.3042 116.175 64.0485 116.208 63.8059 116.251V124.155C64.0572 124.19 64.3064 124.213 64.5534 124.226C64.8047 124.239 65.0712 124.246 65.3529 124.246ZM73.8859 125.117C73.2229 125.117 72.7007 124.946 72.3194 124.603C71.9424 124.261 71.7539 123.791 71.7539 123.193C71.7539 122.578 71.9554 122.099 72.3584 121.756C72.7657 121.41 73.4179 121.193 74.3149 121.106L76.2064 120.905L76.3039 121.594L74.3799 121.802C73.8209 121.858 73.4179 121.995 73.1709 122.211C72.9282 122.424 72.8069 122.718 72.8069 123.095C72.8069 123.49 72.9195 123.791 73.1449 123.999C73.3702 124.207 73.706 124.311 74.1524 124.311C74.46 124.311 74.7699 124.246 75.0819 124.116C75.3939 123.982 75.6734 123.758 75.9204 123.446V120.333C75.9204 119.9 75.8532 119.566 75.7189 119.332C75.5845 119.094 75.383 118.927 75.1144 118.831C74.8457 118.736 74.5077 118.688 74.1004 118.688C73.836 118.688 73.5349 118.712 73.1969 118.76C72.8632 118.808 72.5295 118.888 72.1959 119V118.149C72.4992 118.049 72.8329 117.973 73.1969 117.921C73.5652 117.865 73.9119 117.837 74.2369 117.837C74.8349 117.837 75.3332 117.915 75.7319 118.071C76.1349 118.227 76.436 118.491 76.6354 118.864C76.839 119.232 76.9409 119.737 76.9409 120.378V125H76.0699L75.9919 124.213H75.9269C75.6972 124.504 75.4025 124.727 75.0429 124.883C74.6875 125.039 74.3019 125.117 73.8859 125.117ZM82.2858 127.99C81.9608 127.99 81.612 127.962 81.2393 127.906C80.871 127.854 80.5265 127.776 80.2058 127.672V126.801C80.5741 126.913 80.9251 126.996 81.2588 127.048C81.5968 127.104 81.9196 127.132 82.2273 127.132C82.99 127.132 83.5533 126.967 83.9173 126.638C84.2813 126.313 84.4633 125.748 84.4633 124.941V124.252H84.4048C84.1925 124.499 83.9195 124.701 83.5858 124.857C83.2565 125.013 82.8795 125.091 82.4548 125.091C81.9651 125.091 81.5166 124.978 81.1093 124.753C80.702 124.523 80.3748 124.155 80.1278 123.648C79.8808 123.137 79.7573 122.458 79.7573 121.613C79.7573 120.348 80.0585 119.403 80.6608 118.779C81.2675 118.151 82.158 117.837 83.3323 117.837C83.575 117.837 83.822 117.85 84.0733 117.876C84.329 117.902 84.5781 117.939 84.8208 117.987C85.0635 118.034 85.291 118.09 85.5033 118.155V124.786C85.5033 125.93 85.2346 126.749 84.6973 127.243C84.16 127.741 83.3561 127.99 82.2858 127.99ZM82.7603 124.2C83.0766 124.2 83.3865 124.133 83.6898 123.999C83.9975 123.865 84.2553 123.659 84.4633 123.381V118.831C84.3073 118.792 84.1231 118.76 83.9108 118.734C83.6985 118.704 83.4775 118.688 83.2478 118.688C82.4591 118.688 81.8568 118.909 81.4408 119.351C81.0248 119.789 80.8168 120.511 80.8168 121.516C80.8168 122.214 80.9013 122.757 81.0703 123.147C81.2393 123.537 81.469 123.81 81.7593 123.966C82.054 124.122 82.3876 124.2 82.7603 124.2Z" fill="#E5DFD9"/>
<path d="M20.1271 36.8593C38.514 -6.07153 56.8257 -9.83741 75.8155 37.0853" stroke="#E5DFD9" stroke-width="1.5"/>
<path d="M24.1964 38.667C39.9459 -2.15502 55.9968 -2.53164 71.5956 37.9891" stroke="#E5DFD9" stroke-width="1.5"/>
<path d="M21.3518 37.0068C22.8645 37.0068 24.0881 38.2298 24.0881 39.7343C24.088 41.2387 22.8644 42.4609 21.3518 42.4609C19.8394 42.4606 18.6166 41.2385 18.6165 39.7343C18.6165 38.23 19.8393 37.007 21.3518 37.0068Z" stroke="#E5DFD9" stroke-width="1.5"/>
<path d="M28.9856 38.2148C29.1971 41.891 29.5901 50.0261 29.4705 53.157" stroke="#E5DFD9" stroke-width="1.5"/>
<path d="M35.4663 37.1606C35.6483 41.6091 35.976 51.4538 35.8312 55.2449" stroke="#E5DFD9" stroke-width="1.5"/>
<path d="M41.6455 41.6796C41.8201 46.3213 42.1315 56.5937 41.9804 60.5499" stroke="#E5DFD9" stroke-width="1.5"/>
<path d="M14.4 75.6765C14.4 68.446 22.934 46.7546 26.6265 36.2855C40.3226 31.3146 52.5304 31.5406 69.4856 36.2855C70.3295 38.1534 77.9506 62.1947 81.1658 74.5467C82.8237 83.2835 75.6475 88.3571 69.4856 90.3633C59.5385 93.602 36.0273 93.4513 25.9296 90.3633C15.5304 87.1831 14.4 79.2962 14.4 75.6765Z" stroke="#E5DFD9" stroke-width="1.5"/>
<path d="M69.2732 36.134L60.4113 41.6867C52.1536 46.274 53.8114 43.2613 57.3263 39.8526L59.8029 37.513C61.2592 36.1846 62.8712 34.1131 57.6685 36.4538L49.4407 39.8526C42.3572 43.1107 39.1275 42.5081 43.9197 39.8259L47.8582 37.2509C49.4502 36.1564 51.139 33.7664 46.5815 35.0999C42.0239 36.4333 39.7132 37.0895 39.1275 37.2509C37.3523 37.6109 34.1954 37.9995 35.7689 36.6744L38.7581 34.7168C38.0052 34.7757 36.0012 35.1335 34.0089 36.0934C31.5185 37.2933 27.6345 39.3811 29.2814 37.6191C29.5249 37.0254 29.2304 36.1195 26.1046 37.2444" stroke="#E5DFD9" stroke-width="1.5"/>
<path d="M27.286 36.031L26.5324 36.7089L26.3817 37.1608L26.9846 36.8595H28.7178L29.3206 37.1608L28.9438 38.0646L29.5467 38.2905L33.1638 36.4076L37.233 34.9012L37.5345 35.3531L35.4245 37.1608L35.952 37.5373L39.5691 37.1608L47.1047 34.9012H49.3654V35.805L48.7626 36.6335L46.5019 38.0646L42.0559 41.1526L41.6791 41.7551L42.0559 42.207L45.8237 41.3785L54.8664 37.6127L59.84 35.5038H60.9703L61.121 36.1063L58.6343 38.5165L55.3939 41.7551L54.2636 43.7134L54.8664 44.09L57.1271 43.3368L61.4978 41.1526L66.0192 38.2905L69.1088 36.257L68.506 35.8804L65.1149 34.9766L58.6343 33.8468L54.2636 33.1689L48.5365 32.5664H44.3919L40.7748 32.943L37.0823 33.4702L33.4652 34.2987L29.6974 35.2778L27.286 36.031Z" fill="#E5DFD9"/>
</svg>
