<svg width="90" height="124" viewBox="0 0 90 124" fill="none" xmlns="http://www.w3.org/2000/svg">
<path d="M18.2955 121V112.296H15.091V111.38H22.553V112.296H19.3485V121H18.2955ZM26.6552 121.124C26.0485 121.124 25.5199 120.998 25.0692 120.746C24.6185 120.491 24.2697 120.096 24.0227 119.563C23.7757 119.026 23.6522 118.331 23.6522 117.477C23.6522 116.632 23.7735 115.941 24.0162 115.403C24.2632 114.866 24.612 114.472 25.0627 114.22C25.5134 113.965 26.0442 113.837 26.6552 113.837C27.2662 113.837 27.797 113.965 28.2477 114.22C28.6984 114.472 29.045 114.866 29.2877 115.403C29.5347 115.936 29.6582 116.628 29.6582 117.477C29.6582 118.322 29.5325 119.013 29.2812 119.55C29.0342 120.088 28.6854 120.484 28.2347 120.74C27.7884 120.996 27.2619 121.124 26.6552 121.124ZM26.6552 120.278C27.0539 120.278 27.3984 120.192 27.6887 120.018C27.979 119.845 28.2022 119.557 28.3582 119.154C28.5185 118.747 28.5987 118.194 28.5987 117.496C28.5987 116.786 28.5185 116.227 28.3582 115.819C28.2022 115.408 27.9769 115.117 27.6822 114.948C27.3919 114.775 27.0495 114.688 26.6552 114.688C26.2565 114.688 25.912 114.775 25.6217 114.948C25.3314 115.117 25.106 115.406 24.9457 115.813C24.7897 116.216 24.7117 116.766 24.7117 117.464C24.7117 118.17 24.7897 118.729 24.9457 119.141C25.106 119.548 25.3314 119.841 25.6217 120.018C25.912 120.192 26.2565 120.278 26.6552 120.278ZM35.0596 121.124C34.3403 121.124 33.7813 120.939 33.3826 120.571C32.9839 120.198 32.7846 119.605 32.7846 118.79V113.947L32.9536 111.38H33.8246V118.621C33.8246 119.215 33.9459 119.631 34.1886 119.869C34.4356 120.107 34.8018 120.226 35.2871 120.226C35.4171 120.226 35.5514 120.218 35.6901 120.2C35.8288 120.179 35.9804 120.151 36.1451 120.116V120.993C35.9718 121.037 35.7941 121.069 35.6121 121.091C35.4301 121.113 35.2459 121.124 35.0596 121.124ZM31.4586 114.805V113.947H36.0411V114.805H31.4586ZM41.4252 121.124C40.6929 121.124 40.0776 121 39.5792 120.753C39.0852 120.502 38.7126 120.109 38.4612 119.576C38.2099 119.039 38.0842 118.337 38.0842 117.47C38.0842 116.643 38.1991 115.96 38.4287 115.423C38.6627 114.886 38.9921 114.487 39.4167 114.227C39.8457 113.967 40.3527 113.837 40.9377 113.837C41.5141 113.837 42.0037 113.969 42.4067 114.233C42.8141 114.493 43.1239 114.894 43.3362 115.436C43.5486 115.973 43.6547 116.66 43.6547 117.496V117.815H38.6497V117.106H42.8877L42.6602 117.262C42.6602 116.604 42.5909 116.079 42.4522 115.689C42.3179 115.299 42.1207 115.02 41.8607 114.851C41.6051 114.678 41.2931 114.591 40.9247 114.591C40.5607 114.591 40.2444 114.675 39.9757 114.844C39.7071 115.013 39.4991 115.293 39.3517 115.683C39.2087 116.073 39.1372 116.599 39.1372 117.262V117.626C39.1372 118.276 39.2239 118.796 39.3972 119.186C39.5749 119.572 39.8414 119.852 40.1967 120.025C40.5521 120.194 41.0027 120.278 41.5487 120.278C41.8174 120.278 42.0947 120.255 42.3807 120.207C42.6711 120.155 42.9787 120.083 43.3037 119.992V120.844C42.9657 120.939 42.6429 121.009 42.3352 121.052C42.0319 121.1 41.7286 121.124 41.4252 121.124ZM53.4085 121.085C53.1528 121.085 52.8928 121.078 52.6285 121.065C52.3685 121.052 52.1063 121.035 51.842 121.013C51.5777 120.991 51.309 120.963 51.036 120.928V111.542C51.3003 111.486 51.5712 111.438 51.8485 111.399C52.1302 111.36 52.4227 111.33 52.726 111.308C53.0293 111.287 53.3478 111.276 53.6815 111.276C54.5438 111.276 55.2458 111.371 55.7875 111.562C56.3335 111.748 56.7343 112.032 56.99 112.413C57.2457 112.79 57.3735 113.267 57.3735 113.843C57.3735 114.212 57.3063 114.554 57.172 114.87C57.0377 115.182 56.8253 115.445 56.535 115.657C56.2447 115.869 55.8655 116.012 55.3975 116.086L55.4105 115.995C56.1645 116.082 56.7257 116.335 57.094 116.755C57.4623 117.176 57.6465 117.72 57.6465 118.387C57.6465 118.825 57.5685 119.212 57.4125 119.55C57.2608 119.884 57.016 120.166 56.678 120.395C56.3443 120.621 55.9067 120.792 55.365 120.909C54.8277 121.026 54.1755 121.085 53.4085 121.085ZM53.623 120.246C54.3813 120.246 54.9793 120.177 55.417 120.038C55.859 119.899 56.1732 119.691 56.3595 119.414C56.5502 119.132 56.6455 118.779 56.6455 118.354C56.6455 117.717 56.444 117.247 56.041 116.944C55.6423 116.641 55.0097 116.489 54.143 116.489H51.9265V115.637H53.9545C54.5352 115.637 55.001 115.572 55.352 115.442C55.7073 115.312 55.963 115.117 56.119 114.857C56.2793 114.597 56.3595 114.272 56.3595 113.882C56.3595 113.254 56.1623 112.803 55.768 112.53C55.378 112.253 54.7128 112.114 53.7725 112.114C53.4215 112.114 53.1117 112.127 52.843 112.153C52.5743 112.175 52.3187 112.208 52.076 112.251V120.155C52.3273 120.19 52.5765 120.213 52.8235 120.226C53.0748 120.239 53.3413 120.246 53.623 120.246ZM62.156 121.117C61.493 121.117 60.9708 120.946 60.5895 120.603C60.2125 120.261 60.024 119.791 60.024 119.193C60.024 118.578 60.2255 118.099 60.6285 117.756C61.0358 117.41 61.688 117.193 62.585 117.106L64.4765 116.905L64.574 117.594L62.65 117.802C62.091 117.858 61.688 117.995 61.441 118.211C61.1983 118.424 61.077 118.718 61.077 119.095C61.077 119.49 61.1896 119.791 61.415 119.999C61.6403 120.207 61.9761 120.311 62.4225 120.311C62.7301 120.311 63.04 120.246 63.352 120.116C63.664 119.982 63.9435 119.758 64.1905 119.446V116.333C64.1905 115.9 64.1233 115.566 63.989 115.332C63.8546 115.094 63.6531 114.927 63.3845 114.831C63.1158 114.736 62.7778 114.688 62.3705 114.688C62.1061 114.688 61.805 114.712 61.467 114.76C61.1333 114.808 60.7996 114.888 60.466 115V114.149C60.7693 114.049 61.103 113.973 61.467 113.921C61.8353 113.865 62.182 113.837 62.507 113.837C63.105 113.837 63.6033 113.915 64.002 114.071C64.405 114.227 64.7061 114.491 64.9055 114.864C65.1091 115.232 65.211 115.737 65.211 116.378V121H64.34L64.262 120.213H64.197C63.9673 120.504 63.6726 120.727 63.313 120.883C62.9576 121.039 62.572 121.117 62.156 121.117ZM70.5559 123.99C70.2309 123.99 69.8821 123.962 69.5094 123.906C69.1411 123.854 68.7966 123.776 68.4759 123.672V122.801C68.8442 122.913 69.1952 122.996 69.5289 123.048C69.8669 123.104 70.1897 123.132 70.4974 123.132C71.2601 123.132 71.8234 122.967 72.1874 122.638C72.5514 122.313 72.7334 121.748 72.7334 120.941V120.252H72.6749C72.4626 120.499 72.1896 120.701 71.8559 120.857C71.5266 121.013 71.1496 121.091 70.7249 121.091C70.2352 121.091 69.7867 120.978 69.3794 120.753C68.9721 120.523 68.6449 120.155 68.3979 119.648C68.1509 119.137 68.0274 118.458 68.0274 117.613C68.0274 116.348 68.3286 115.403 68.9309 114.779C69.5376 114.151 70.4281 113.837 71.6024 113.837C71.8451 113.837 72.0921 113.85 72.3434 113.876C72.5991 113.902 72.8482 113.939 73.0909 113.987C73.3336 114.034 73.5611 114.09 73.7734 114.155V120.786C73.7734 121.93 73.5047 122.749 72.9674 123.243C72.4301 123.741 71.6262 123.99 70.5559 123.99ZM71.0304 120.2C71.3467 120.2 71.6566 120.133 71.9599 119.999C72.2676 119.865 72.5254 119.659 72.7334 119.381V114.831C72.5774 114.792 72.3932 114.76 72.1809 114.734C71.9686 114.704 71.7476 114.688 71.5179 114.688C70.7292 114.688 70.1269 114.909 69.7109 115.351C69.2949 115.789 69.0869 116.511 69.0869 117.516C69.0869 118.214 69.1714 118.757 69.3404 119.147C69.5094 119.537 69.7391 119.81 70.0294 119.966C70.3241 120.122 70.6577 120.2 71.0304 120.2Z" fill="#E5DFD9"/>
<path d="M76.2865 30.854H13.5153V79.53C13.2548 87.0787 16.3804 88.3802 18.4641 88.3802H70.5563C75.3488 88.3802 76.547 83.4345 76.2865 79.53V30.854Z" fill="#E5DFD9" stroke="#E5DFD9" stroke-width="1.5"/>
<path d="M30.1696 30.5937V17.7002C30.1696 -1.3442 59.3412 -2.44292 59.3412 17.7002V30.5937" stroke="#E5DFD9" stroke-width="1.5"/>
<path d="M28.6068 30.5935V17.7735C28.6068 -3.38975 60.904 -4.61071 60.904 17.7735V30.5935" stroke="#E5DFD9" stroke-width="1.5"/>
<path d="M69.4992 81.0918H57.7784" stroke="#0C0C0C" stroke-width="1.5"/>
</svg>
