<svg width="90" height="124" viewBox="0 0 90 124" fill="none" xmlns="http://www.w3.org/2000/svg">
<path d="M13.003 121.124C12.6217 121.124 12.223 121.091 11.807 121.026C11.3953 120.961 11.0032 120.863 10.6305 120.733V119.823C10.8992 119.914 11.17 119.99 11.443 120.051C11.7203 120.107 11.9912 120.151 12.2555 120.181C12.5198 120.211 12.7733 120.226 13.016 120.226C13.8133 120.226 14.4027 120.077 14.784 119.778C15.1653 119.475 15.356 119.035 15.356 118.458C15.356 117.969 15.2108 117.596 14.9205 117.34C14.6345 117.08 14.1448 116.859 13.4515 116.677L12.9315 116.541C12.1125 116.333 11.4993 116.019 11.092 115.598C10.6847 115.174 10.481 114.615 10.481 113.921C10.481 113.094 10.767 112.444 11.339 111.971C11.9153 111.495 12.7712 111.256 13.9065 111.256C14.2792 111.256 14.6475 111.282 15.0115 111.334C15.3755 111.382 15.707 111.454 16.006 111.549V112.459C15.6767 112.355 15.3365 112.279 14.9855 112.231C14.6388 112.179 14.2878 112.153 13.9325 112.153C13.3822 112.153 12.9315 112.221 12.5805 112.355C12.2295 112.489 11.9695 112.684 11.8005 112.94C11.6315 113.196 11.547 113.503 11.547 113.863C11.547 114.335 11.6792 114.701 11.9435 114.961C12.2078 115.221 12.665 115.438 13.315 115.611L13.8415 115.741C14.4308 115.893 14.9162 116.088 15.2975 116.326C15.6788 116.56 15.9627 116.849 16.149 117.191C16.3353 117.529 16.4285 117.93 16.4285 118.393C16.4285 118.974 16.2942 119.468 16.0255 119.875C15.7568 120.278 15.3668 120.588 14.8555 120.805C14.3442 121.017 13.7267 121.124 13.003 121.124ZM19.1878 121V110.496H20.2278V121H19.1878ZM23.4965 121V113.947H24.5365V121H23.4965ZM24.0165 112.413C23.7825 112.413 23.6027 112.357 23.477 112.244C23.3557 112.127 23.295 111.967 23.295 111.763C23.295 111.555 23.3557 111.393 23.477 111.276C23.6027 111.159 23.7825 111.1 24.0165 111.1C24.2505 111.1 24.4282 111.159 24.5495 111.276C24.6752 111.393 24.738 111.555 24.738 111.763C24.738 111.967 24.6752 112.127 24.5495 112.244C24.4282 112.357 24.2505 112.413 24.0165 112.413ZM27.8053 121V113.947H28.6828L28.7543 114.74H28.8258C29.1118 114.45 29.4455 114.227 29.8268 114.071C30.2082 113.915 30.6133 113.837 31.0423 113.837C31.4843 113.837 31.8743 113.919 32.2123 114.084C32.5547 114.244 32.8212 114.509 33.0118 114.877C33.2068 115.241 33.3043 115.728 33.3043 116.339V121H32.2708V116.385C32.2708 115.778 32.1365 115.358 31.8678 115.124C31.6035 114.886 31.2438 114.766 30.7888 114.766C30.5808 114.766 30.3598 114.797 30.1258 114.857C29.8918 114.918 29.6622 115.018 29.4368 115.156C29.2158 115.295 29.0187 115.479 28.8453 115.709V121H27.8053ZM38.652 123.99C38.327 123.99 37.9782 123.962 37.6055 123.906C37.2372 123.854 36.8927 123.776 36.572 123.672V122.801C36.9403 122.913 37.2913 122.996 37.625 123.048C37.963 123.104 38.2858 123.132 38.5935 123.132C39.3562 123.132 39.9195 122.967 40.2835 122.638C40.6475 122.313 40.8295 121.748 40.8295 120.941V120.252H40.771C40.5587 120.499 40.2857 120.701 39.952 120.857C39.6227 121.013 39.2457 121.091 38.821 121.091C38.3313 121.091 37.8828 120.978 37.4755 120.753C37.0682 120.523 36.741 120.155 36.494 119.648C36.247 119.137 36.1235 118.458 36.1235 117.613C36.1235 116.348 36.4247 115.403 37.027 114.779C37.6337 114.151 38.5242 113.837 39.6985 113.837C39.9412 113.837 40.1882 113.85 40.4395 113.876C40.6952 113.902 40.9443 113.939 41.187 113.987C41.4297 114.034 41.6572 114.09 41.8695 114.155V120.786C41.8695 121.93 41.6008 122.749 41.0635 123.243C40.5262 123.741 39.7223 123.99 38.652 123.99ZM39.1265 120.2C39.4428 120.2 39.7527 120.133 40.056 119.999C40.3637 119.865 40.6215 119.659 40.8295 119.381V114.831C40.6735 114.792 40.4893 114.76 40.277 114.734C40.0647 114.704 39.8437 114.688 39.614 114.688C38.8253 114.688 38.223 114.909 37.807 115.351C37.391 115.789 37.183 116.511 37.183 117.516C37.183 118.214 37.2675 118.757 37.4365 119.147C37.6055 119.537 37.8352 119.81 38.1255 119.966C38.4202 120.122 38.7538 120.2 39.1265 120.2ZM46.8154 121.124C46.4601 121.124 46.1199 121.1 45.7949 121.052C45.4742 121.004 45.1622 120.933 44.8589 120.837V120.005C45.2056 120.109 45.5371 120.185 45.8534 120.233C46.1697 120.276 46.4904 120.298 46.8154 120.298C47.4264 120.298 47.8684 120.194 48.1414 119.986C48.4187 119.778 48.5574 119.485 48.5574 119.108C48.5574 118.788 48.4751 118.543 48.3104 118.374C48.1457 118.201 47.8662 118.073 47.4719 117.99L46.5164 117.795C45.8751 117.657 45.4157 117.429 45.1384 117.113C44.8654 116.792 44.7289 116.381 44.7289 115.878C44.7289 115.284 44.9564 114.797 45.4114 114.415C45.8707 114.03 46.5749 113.837 47.5239 113.837C47.8272 113.837 48.1154 113.854 48.3884 113.889C48.6657 113.924 48.9322 113.976 49.1879 114.045V114.883C48.9019 114.805 48.6267 114.749 48.3624 114.714C48.1024 114.68 47.8294 114.662 47.5434 114.662C47.0971 114.662 46.7396 114.717 46.4709 114.825C46.2066 114.929 46.0159 115.072 45.8989 115.254C45.7819 115.432 45.7234 115.631 45.7234 115.852C45.7234 116.129 45.8014 116.359 45.9574 116.541C46.1134 116.723 46.3864 116.857 46.7764 116.944L47.7319 117.139C48.3819 117.273 48.8477 117.494 49.1294 117.802C49.4154 118.11 49.5584 118.528 49.5584 119.056C49.5584 119.693 49.3244 120.198 48.8564 120.571C48.3927 120.939 47.7124 121.124 46.8154 121.124ZM59.2478 121.085C58.9921 121.085 58.7321 121.078 58.4678 121.065C58.2078 121.052 57.9456 121.035 57.6813 121.013C57.4169 120.991 57.1483 120.963 56.8753 120.928V111.542C57.1396 111.486 57.4104 111.438 57.6878 111.399C57.9694 111.36 58.2619 111.33 58.5653 111.308C58.8686 111.287 59.1871 111.276 59.5208 111.276C60.3831 111.276 61.0851 111.371 61.6268 111.562C62.1728 111.748 62.5736 112.032 62.8293 112.413C63.0849 112.79 63.2128 113.267 63.2128 113.843C63.2128 114.212 63.1456 114.554 63.0113 114.87C62.8769 115.182 62.6646 115.445 62.3743 115.657C62.0839 115.869 61.7048 116.012 61.2368 116.086L61.2498 115.995C62.0038 116.082 62.5649 116.335 62.9333 116.755C63.3016 117.176 63.4858 117.72 63.4858 118.387C63.4858 118.825 63.4078 119.212 63.2518 119.55C63.1001 119.884 62.8553 120.166 62.5173 120.395C62.1836 120.621 61.7459 120.792 61.2043 120.909C60.6669 121.026 60.0148 121.085 59.2478 121.085ZM59.4623 120.246C60.2206 120.246 60.8186 120.177 61.2563 120.038C61.6983 119.899 62.0124 119.691 62.1988 119.414C62.3894 119.132 62.4848 118.779 62.4848 118.354C62.4848 117.717 62.2833 117.247 61.8803 116.944C61.4816 116.641 60.8489 116.489 59.9823 116.489H57.7658V115.637H59.7938C60.3744 115.637 60.8403 115.572 61.1913 115.442C61.5466 115.312 61.8023 115.117 61.9583 114.857C62.1186 114.597 62.1988 114.272 62.1988 113.882C62.1988 113.254 62.0016 112.803 61.6073 112.53C61.2173 112.253 60.5521 112.114 59.6118 112.114C59.2608 112.114 58.9509 112.127 58.6823 112.153C58.4136 112.175 58.1579 112.208 57.9153 112.251V120.155C58.1666 120.19 58.4158 120.213 58.6628 120.226C58.9141 120.239 59.1806 120.246 59.4623 120.246ZM68.4047 123.99C68.0797 123.99 67.7309 123.962 67.3582 123.906C66.9899 123.854 66.6454 123.776 66.3247 123.672V122.801C66.6931 122.913 67.0441 122.996 67.3777 123.048C67.7157 123.104 68.0386 123.132 68.3462 123.132C69.1089 123.132 69.6722 122.967 70.0362 122.638C70.4002 122.313 70.5822 121.748 70.5822 120.941V120.252H70.5237C70.3114 120.499 70.0384 120.701 69.7047 120.857C69.3754 121.013 68.9984 121.091 68.5737 121.091C68.0841 121.091 67.6356 120.978 67.2282 120.753C66.8209 120.523 66.4937 120.155 66.2467 119.648C65.9997 119.137 65.8762 118.458 65.8762 117.613C65.8762 116.348 66.1774 115.403 66.7797 114.779C67.3864 114.151 68.2769 113.837 69.4512 113.837C69.6939 113.837 69.9409 113.85 70.1922 113.876C70.4479 113.902 70.6971 113.939 70.9397 113.987C71.1824 114.034 71.4099 114.09 71.6222 114.155V120.786C71.6222 121.93 71.3536 122.749 70.8162 123.243C70.2789 123.741 69.4751 123.99 68.4047 123.99ZM68.8792 120.2C69.1956 120.2 69.5054 120.133 69.8087 119.999C70.1164 119.865 70.3742 119.659 70.5822 119.381V114.831C70.4262 114.792 70.2421 114.76 70.0297 114.734C69.8174 114.704 69.5964 114.688 69.3667 114.688C68.5781 114.688 67.9757 114.909 67.5597 115.351C67.1437 115.789 66.9357 116.511 66.9357 117.516C66.9357 118.214 67.0202 118.757 67.1892 119.147C67.3582 119.537 67.5879 119.81 67.8782 119.966C68.1729 120.122 68.5066 120.2 68.8792 120.2ZM76.5681 121.124C76.2128 121.124 75.8726 121.1 75.5476 121.052C75.227 121.004 74.915 120.933 74.6116 120.837V120.005C74.9583 120.109 75.2898 120.185 75.6061 120.233C75.9225 120.276 76.2431 120.298 76.5681 120.298C77.1791 120.298 77.6211 120.194 77.8941 119.986C78.1715 119.778 78.3101 119.485 78.3101 119.108C78.3101 118.788 78.2278 118.543 78.0631 118.374C77.8985 118.201 77.619 118.073 77.2246 117.99L76.2691 117.795C75.6278 117.657 75.1685 117.429 74.8911 117.113C74.6181 116.792 74.4816 116.381 74.4816 115.878C74.4816 115.284 74.7091 114.797 75.1641 114.415C75.6235 114.03 76.3276 113.837 77.2766 113.837C77.58 113.837 77.8681 113.854 78.1411 113.889C78.4185 113.924 78.685 113.976 78.9406 114.045V114.883C78.6546 114.805 78.3795 114.749 78.1151 114.714C77.8551 114.68 77.5821 114.662 77.2961 114.662C76.8498 114.662 76.4923 114.717 76.2236 114.825C75.9593 114.929 75.7686 115.072 75.6516 115.254C75.5346 115.432 75.4761 115.631 75.4761 115.852C75.4761 116.129 75.5541 116.359 75.7101 116.541C75.8661 116.723 76.1391 116.857 76.5291 116.944L77.4846 117.139C78.1346 117.273 78.6005 117.494 78.8821 117.802C79.1681 118.11 79.3111 118.528 79.3111 119.056C79.3111 119.693 79.0771 120.198 78.6091 120.571C78.1455 120.939 77.4651 121.124 76.5681 121.124Z" fill="#E5DFD9"/>
<g clip-path="url(#clip0_2_691)">
<path d="M22.5493 44.9998C31.5713 -11.3986 58.0736 -17.7701 69.0692 44.9998" stroke="#E5DFD9" stroke-width="1.5"/>
<path d="M69.0486 45H22.5631C20.0305 51.5027 14.8019 75.7418 45.6833 74.8796C78.1169 73.9742 70.274 49.6918 69.0486 45Z" stroke="#E5DFD9" stroke-width="1.5"/>
<path d="M20.8958 59.7339C20.1878 64.755 18.4863 75.8672 18.617 77.1843C18.8621 88.0496 26.1331 88.2965 35.5282 89.0373C44.3515 89.7331 59.6288 88.741 60.9359 88.5435C68.7788 87.885 72.6185 85.7448 72.6185 77.1843C72.2014 71.9985 72.038 70.8462 70.4041 59.7339" stroke="#E5DFD9" stroke-width="1.5"/>
<path d="M23.8416 45.0002C34.02 -13.6798 57.87 -11.8798 67.777 45.0002" stroke="#E5DFD9" stroke-width="1.5"/>
<path d="M57.2239 83.7002H65.8387" stroke="#E5DFD9" stroke-width="1.5"/>
<path d="M42.2256 74.8933V76.3671C42.2256 77.4717 43.121 78.3671 44.2256 78.3671H46.9957C48.1002 78.3671 48.9957 77.4717 48.9957 76.3671V74.7104" stroke="#E5DFD9" stroke-width="1.5"/>
</g>
<defs>
<clipPath id="clip0_2_691">
<rect width="90" height="90" fill="white"/>
</clipPath>
</defs>
</svg>
