<svg width="90" height="124" viewBox="0 0 90 124" fill="none" xmlns="http://www.w3.org/2000/svg">
<path d="M86.4001 51.8789C61.7116 39.9039 17.0911 46.0044 4.86011 51.8789C6.67211 60.2388 17.5441 85.3184 20.7151 85.3184C27.0571 87.3519 65.3356 87.1259 71.9041 85.3184C74.8033 85.3184 84.3616 61.5944 86.4001 51.8789Z" stroke="#E5DFD9" stroke-width="1.5"/>
<path d="M38.88 51.6597H52.2" stroke="#E5DFD9" stroke-width="1.5"/>
<path d="M32.3549 33.4104C37.1707 31.0226 40.2899 29.3289 42.3502 28.3804C43.3692 27.9112 44.0316 27.674 44.4543 27.6096C44.4529 27.6112 44.4519 27.6132 44.4504 27.6148C44.1454 27.9486 43.6382 28.3922 42.9406 28.9291C41.5544 29.9959 39.5262 31.3499 37.1605 32.8185C32.4335 35.7531 26.4265 39.1031 21.6751 41.459C16.8544 43.8492 12.607 46.6739 9.51006 48.6995C8.19958 49.5567 7.11551 50.2551 6.27536 50.7296C6.64399 50.3872 7.09174 49.9956 7.61349 49.5636C9.39509 48.0885 11.947 46.1926 14.8302 44.1858C20.6009 40.1692 27.6298 35.7532 32.3549 33.4104Z" stroke="#E5DFD9" stroke-width="1.5"/>
<path d="M3.5035 121L0.0715 111.38H1.1895L4.4135 120.519H4.1795L7.423 111.38H8.4695L5.0375 121H3.5035ZM11.863 121.117C11.2 121.117 10.6778 120.946 10.2965 120.603C9.91951 120.261 9.73101 119.791 9.73101 119.193C9.73101 118.578 9.93251 118.099 10.3355 117.756C10.7428 117.41 11.395 117.193 12.292 117.106L14.1835 116.905L14.281 117.594L12.357 117.802C11.798 117.858 11.395 117.995 11.148 118.211C10.9053 118.424 10.784 118.718 10.784 119.095C10.784 119.49 10.8967 119.791 11.122 119.999C11.3473 120.207 11.6832 120.311 12.1295 120.311C12.4372 120.311 12.747 120.246 13.059 120.116C13.371 119.982 13.6505 119.758 13.8975 119.446V116.333C13.8975 115.9 13.8303 115.566 13.696 115.332C13.5617 115.094 13.3602 114.927 13.0915 114.831C12.8228 114.736 12.4848 114.688 12.0775 114.688C11.8132 114.688 11.512 114.712 11.174 114.76C10.8403 114.808 10.5067 114.888 10.173 115V114.149C10.4763 114.049 10.81 113.973 11.174 113.921C11.5423 113.865 11.889 113.837 12.214 113.837C12.812 113.837 13.3103 113.915 13.709 114.071C14.112 114.227 14.4132 114.491 14.6125 114.864C14.8162 115.232 14.918 115.737 14.918 116.378V121H14.047L13.969 120.213H13.904C13.6743 120.504 13.3797 120.727 13.02 120.883C12.6647 121.039 12.279 121.117 11.863 121.117ZM18.1049 121V113.947H18.9824L19.0539 114.74H19.1254C19.4114 114.45 19.7451 114.227 20.1264 114.071C20.5078 113.915 20.9129 113.837 21.3419 113.837C21.7839 113.837 22.1739 113.919 22.5119 114.084C22.8543 114.244 23.1208 114.509 23.3114 114.877C23.5064 115.241 23.6039 115.728 23.6039 116.339V121H22.5704V116.385C22.5704 115.778 22.4361 115.358 22.1674 115.124C21.9031 114.886 21.5434 114.766 21.0884 114.766C20.8804 114.766 20.6594 114.797 20.4254 114.857C20.1914 114.918 19.9618 115.018 19.7364 115.156C19.5154 115.295 19.3183 115.479 19.1449 115.709V121H18.1049ZM26.7936 121V113.947H27.8336V121H26.7936ZM27.3136 112.413C27.0796 112.413 26.8998 112.357 26.7741 112.244C26.6528 112.127 26.5921 111.967 26.5921 111.763C26.5921 111.555 26.6528 111.393 26.7741 111.276C26.8998 111.159 27.0796 111.1 27.3136 111.1C27.5476 111.1 27.7253 111.159 27.8466 111.276C27.9723 111.393 28.0351 111.555 28.0351 111.763C28.0351 111.967 27.9723 112.127 27.8466 112.244C27.7253 112.357 27.5476 112.413 27.3136 112.413ZM33.7934 121.124C33.0741 121.124 32.5151 120.939 32.1164 120.571C31.7177 120.198 31.5184 119.605 31.5184 118.79V113.947L31.6874 111.38H32.5584V118.621C32.5584 119.215 32.6797 119.631 32.9224 119.869C33.1694 120.107 33.5356 120.226 34.0209 120.226C34.1509 120.226 34.2852 120.218 34.4239 120.2C34.5626 120.179 34.7142 120.151 34.8789 120.116V120.993C34.7056 121.037 34.5279 121.069 34.3459 121.091C34.1639 121.113 33.9797 121.124 33.7934 121.124ZM30.1924 114.805V113.947H34.7749V114.805H30.1924ZM37.9483 123.86L39.0338 121L39.3653 120.252L41.6923 113.947H42.7388L38.9883 123.86H37.9483ZM38.7348 121L36.0633 113.947H37.1748L39.7293 121H38.7348ZM49.719 121V111.523C50.1177 111.445 50.5163 111.384 50.915 111.341C51.318 111.298 51.7427 111.276 52.189 111.276C53.4587 111.276 54.4185 111.54 55.0685 112.069C55.7228 112.593 56.05 113.423 56.05 114.558C56.05 115.624 55.725 116.439 55.075 117.002C54.4293 117.566 53.4175 117.847 52.0395 117.847C51.8142 117.847 51.6018 117.843 51.4025 117.834C51.2075 117.821 50.9973 117.806 50.772 117.789V121H49.719ZM52.059 116.989C53.0947 116.989 53.8443 116.792 54.308 116.398C54.7717 115.999 55.0035 115.393 55.0035 114.578C55.0035 113.724 54.776 113.105 54.321 112.719C53.8703 112.329 53.1835 112.134 52.2605 112.134C51.9788 112.134 51.7167 112.145 51.474 112.166C51.2357 112.184 51.0017 112.212 50.772 112.251V116.911C50.9843 116.942 51.1923 116.963 51.396 116.976C51.604 116.985 51.825 116.989 52.059 116.989ZM61.4437 121.124C60.837 121.124 60.3084 120.998 59.8577 120.746C59.407 120.491 59.0582 120.096 58.8112 119.563C58.5642 119.026 58.4407 118.331 58.4407 117.477C58.4407 116.632 58.562 115.941 58.8047 115.403C59.0517 114.866 59.4005 114.472 59.8512 114.22C60.3019 113.965 60.8327 113.837 61.4437 113.837C62.0547 113.837 62.5855 113.965 63.0362 114.22C63.4869 114.472 63.8335 114.866 64.0762 115.403C64.3232 115.936 64.4467 116.628 64.4467 117.477C64.4467 118.322 64.321 119.013 64.0697 119.55C63.8227 120.088 63.4739 120.484 63.0232 120.74C62.5769 120.996 62.0504 121.124 61.4437 121.124ZM61.4437 120.278C61.8424 120.278 62.1869 120.192 62.4772 120.018C62.7675 119.845 62.9907 119.557 63.1467 119.154C63.307 118.747 63.3872 118.194 63.3872 117.496C63.3872 116.786 63.307 116.227 63.1467 115.819C62.9907 115.408 62.7654 115.117 62.4707 114.948C62.1804 114.775 61.838 114.688 61.4437 114.688C61.045 114.688 60.7005 114.775 60.4102 114.948C60.1199 115.117 59.8945 115.406 59.7342 115.813C59.5782 116.216 59.5002 116.766 59.5002 117.464C59.5002 118.17 59.5782 118.729 59.7342 119.141C59.8945 119.548 60.1199 119.841 60.4102 120.018C60.7005 120.192 61.045 120.278 61.4437 120.278ZM69.5123 121.117C69.0747 121.117 68.6868 121.037 68.3488 120.876C68.0108 120.716 67.7443 120.454 67.5493 120.09C67.3543 119.726 67.2568 119.238 67.2568 118.627V113.947H68.2968V118.582C68.2968 119.184 68.4312 119.605 68.6998 119.843C68.9685 120.077 69.3152 120.194 69.7398 120.194C69.9522 120.194 70.1732 120.161 70.4028 120.096C70.6368 120.031 70.8622 119.93 71.0788 119.791C71.2955 119.652 71.4883 119.472 71.6573 119.251V113.947H72.6973V121H71.8198L71.7483 120.226H71.6833C71.3887 120.521 71.055 120.744 70.6823 120.896C70.3097 121.043 69.9197 121.117 69.5123 121.117ZM78.7095 121.124C78.0422 121.124 77.4767 120.998 77.013 120.746C76.5493 120.491 76.1962 120.096 75.9535 119.563C75.7108 119.026 75.5895 118.331 75.5895 117.477C75.5895 116.623 75.7195 115.93 75.9795 115.397C76.2438 114.86 76.6273 114.465 77.13 114.214C77.6327 113.963 78.248 113.837 78.976 113.837C79.223 113.837 79.47 113.852 79.717 113.882C79.964 113.913 80.2002 113.958 80.4255 114.019V114.903C80.1958 114.842 79.9683 114.797 79.743 114.766C79.522 114.736 79.3032 114.721 79.0865 114.721C78.5448 114.721 78.0942 114.81 77.7345 114.987C77.3748 115.165 77.1062 115.453 76.9285 115.852C76.7552 116.251 76.6685 116.784 76.6685 117.451C76.6685 118.136 76.7508 118.682 76.9155 119.089C77.0802 119.496 77.325 119.791 77.65 119.973C77.9793 120.151 78.3823 120.239 78.859 120.239C79.0887 120.239 79.3292 120.218 79.5805 120.174C79.8318 120.127 80.1135 120.053 80.4255 119.953V120.831C80.1482 120.931 79.8643 121.004 79.574 121.052C79.288 121.1 78.9998 121.124 78.7095 121.124ZM82.9983 121V110.496H84.0383V114.734H84.0968C84.3828 114.435 84.7121 114.212 85.0848 114.064C85.4575 113.913 85.854 113.837 86.2743 113.837C86.7033 113.837 87.0846 113.919 87.4183 114.084C87.7563 114.244 88.0206 114.506 88.2113 114.87C88.402 115.234 88.4973 115.722 88.4973 116.333V121H87.4638V116.378C87.4638 115.772 87.3273 115.354 87.0543 115.124C86.7856 114.89 86.4281 114.773 85.9818 114.773C85.7651 114.773 85.5398 114.805 85.3058 114.87C85.0718 114.931 84.8443 115.031 84.6233 115.169C84.4023 115.304 84.2073 115.484 84.0383 115.709V121H82.9983Z" fill="#E5DFD9"/>
</svg>
