<svg width="96" height="130" viewBox="0 0 96 130" fill="none" xmlns="http://www.w3.org/2000/svg">
<path d="M15.3735 127.078C15.1308 127.078 14.8903 127.072 14.652 127.059C14.4137 127.05 14.1667 127.035 13.911 127.013C13.6553 126.996 13.3845 126.972 13.0985 126.941V117.536C13.3585 117.484 13.6293 117.438 13.911 117.399C14.197 117.36 14.483 117.332 14.769 117.315C15.0593 117.293 15.341 117.282 15.614 117.282C17.2 117.282 18.396 117.683 19.202 118.485C20.0123 119.287 20.4175 120.522 20.4175 122.19C20.4175 123.321 20.229 124.246 19.852 124.965C19.475 125.685 18.9117 126.218 18.162 126.564C17.4167 126.907 16.4872 127.078 15.3735 127.078ZM15.5815 126.174C16.4178 126.174 17.1133 126.04 17.668 125.771C18.2227 125.498 18.6365 125.069 18.9095 124.484C19.1868 123.895 19.3255 123.128 19.3255 122.183C19.3255 121.252 19.189 120.491 18.916 119.902C18.6473 119.313 18.24 118.879 17.694 118.602C17.1523 118.32 16.4698 118.179 15.6465 118.179C15.4125 118.179 15.1698 118.19 14.9185 118.212C14.6672 118.234 14.4115 118.266 14.1515 118.309V126.096C14.3768 126.122 14.6022 126.142 14.8275 126.155C15.0572 126.168 15.3085 126.174 15.5815 126.174ZM25.5615 127.117C25.1239 127.117 24.736 127.037 24.398 126.876C24.06 126.716 23.7935 126.454 23.5985 126.09C23.4035 125.726 23.306 125.238 23.306 124.627V119.947H24.346V124.582C24.346 125.184 24.4804 125.605 24.749 125.843C25.0177 126.077 25.3644 126.194 25.789 126.194C26.0014 126.194 26.2224 126.161 26.452 126.096C26.686 126.031 26.9114 125.93 27.128 125.791C27.3447 125.652 27.5375 125.472 27.7065 125.251V119.947H28.7465V127H27.869L27.7975 126.226H27.7325C27.4379 126.521 27.1042 126.744 26.7315 126.896C26.3589 127.043 25.9689 127.117 25.5615 127.117ZM32.5153 127V118.881C32.5153 118.335 32.6107 117.876 32.8013 117.503C32.9963 117.126 33.2845 116.843 33.6658 116.652C34.0472 116.461 34.5173 116.366 35.0763 116.366C35.2367 116.366 35.397 116.372 35.5573 116.385C35.722 116.398 35.8823 116.418 36.0383 116.444V117.315C35.891 117.289 35.7458 117.272 35.6028 117.263C35.4642 117.25 35.3233 117.243 35.1803 117.243C34.63 117.243 34.2205 117.365 33.9518 117.607C33.6832 117.85 33.5488 118.26 33.5488 118.836V127H32.5153ZM31.1893 120.805V119.947H35.7653V120.805H31.1893ZM38.1444 127V118.881C38.1444 118.335 38.2398 117.876 38.4304 117.503C38.6254 117.126 38.9136 116.843 39.2949 116.652C39.6763 116.461 40.1464 116.366 40.7054 116.366C40.8658 116.366 41.0261 116.372 41.1864 116.385C41.3511 116.398 41.5114 116.418 41.6674 116.444V117.315C41.5201 117.289 41.3749 117.272 41.2319 117.263C41.0933 117.25 40.9524 117.243 40.8094 117.243C40.2591 117.243 39.8496 117.365 39.5809 117.607C39.3123 117.85 39.1779 118.26 39.1779 118.836V127H38.1444ZM36.8184 120.805V119.947H41.3944V120.805H36.8184ZM43.8641 127V116.496H44.9041V127H43.8641ZM51.1434 127.124C50.4111 127.124 49.7957 127 49.2974 126.753C48.8034 126.502 48.4307 126.109 48.1794 125.576C47.9281 125.039 47.8024 124.337 47.8024 123.47C47.8024 122.643 47.9172 121.96 48.1469 121.423C48.3809 120.886 48.7102 120.487 49.1349 120.227C49.5639 119.967 50.0709 119.837 50.6559 119.837C51.2322 119.837 51.7219 119.969 52.1249 120.233C52.5322 120.493 52.8421 120.894 53.0544 121.436C53.2667 121.973 53.3729 122.66 53.3729 123.496V123.815H48.3679V123.106H52.6059L52.3784 123.262C52.3784 122.604 52.3091 122.079 52.1704 121.689C52.0361 121.299 51.8389 121.02 51.5789 120.851C51.3232 120.678 51.0112 120.591 50.6429 120.591C50.2789 120.591 49.9626 120.675 49.6939 120.844C49.4252 121.013 49.2172 121.293 49.0699 121.683C48.9269 122.073 48.8554 122.599 48.8554 123.262V123.626C48.8554 124.276 48.9421 124.796 49.1154 125.186C49.2931 125.572 49.5596 125.852 49.9149 126.025C50.2702 126.194 50.7209 126.278 51.2669 126.278C51.5356 126.278 51.8129 126.255 52.0989 126.207C52.3892 126.155 52.6969 126.083 53.0219 125.992V126.844C52.6839 126.939 52.3611 127.009 52.0534 127.052C51.7501 127.1 51.4467 127.124 51.1434 127.124ZM63.1267 127.085C62.871 127.085 62.611 127.078 62.3467 127.065C62.0867 127.052 61.8245 127.035 61.5602 127.013C61.2958 126.991 61.0272 126.963 60.7542 126.928V117.542C61.0185 117.486 61.2893 117.438 61.5667 117.399C61.8483 117.36 62.1408 117.33 62.4442 117.308C62.7475 117.287 63.066 117.276 63.3997 117.276C64.262 117.276 64.964 117.371 65.5057 117.562C66.0517 117.748 66.4525 118.032 66.7082 118.413C66.9638 118.79 67.0917 119.267 67.0917 119.843C67.0917 120.212 67.0245 120.554 66.8902 120.87C66.7558 121.182 66.5435 121.445 66.2532 121.657C65.9628 121.869 65.5837 122.012 65.1157 122.086L65.1287 121.995C65.8827 122.082 66.4438 122.335 66.8122 122.755C67.1805 123.176 67.3647 123.72 67.3647 124.387C67.3647 124.825 67.2867 125.212 67.1307 125.55C66.979 125.884 66.7342 126.166 66.3962 126.395C66.0625 126.621 65.6248 126.792 65.0832 126.909C64.5458 127.026 63.8937 127.085 63.1267 127.085ZM63.3412 126.246C64.0995 126.246 64.6975 126.177 65.1352 126.038C65.5772 125.899 65.8913 125.691 66.0777 125.414C66.2683 125.132 66.3637 124.779 66.3637 124.354C66.3637 123.717 66.1622 123.247 65.7592 122.944C65.3605 122.641 64.7278 122.489 63.8612 122.489H61.6447V121.637H63.6727C64.2533 121.637 64.7192 121.572 65.0702 121.442C65.4255 121.312 65.6812 121.117 65.8372 120.857C65.9975 120.597 66.0777 120.272 66.0777 119.882C66.0777 119.254 65.8805 118.803 65.4862 118.53C65.0962 118.253 64.431 118.114 63.4907 118.114C63.1397 118.114 62.8298 118.127 62.5612 118.153C62.2925 118.175 62.0368 118.208 61.7942 118.251V126.155C62.0455 126.19 62.2947 126.213 62.5417 126.226C62.793 126.239 63.0595 126.246 63.3412 126.246ZM71.8741 127.117C71.2111 127.117 70.689 126.946 70.3076 126.603C69.9306 126.261 69.7421 125.791 69.7421 125.193C69.7421 124.578 69.9436 124.099 70.3466 123.756C70.754 123.41 71.4061 123.193 72.3031 123.106L74.1946 122.905L74.2921 123.594L72.3681 123.802C71.8091 123.858 71.4061 123.995 71.1591 124.211C70.9165 124.424 70.7951 124.718 70.7951 125.095C70.7951 125.49 70.9078 125.791 71.1331 125.999C71.3585 126.207 71.6943 126.311 72.1406 126.311C72.4483 126.311 72.7581 126.246 73.0701 126.116C73.3821 125.982 73.6616 125.758 73.9086 125.446V122.333C73.9086 121.9 73.8415 121.566 73.7071 121.332C73.5728 121.094 73.3713 120.927 73.1026 120.831C72.834 120.736 72.496 120.688 72.0886 120.688C71.8243 120.688 71.5231 120.712 71.1851 120.76C70.8515 120.808 70.5178 120.888 70.1841 121V120.149C70.4875 120.049 70.8211 119.973 71.1851 119.921C71.5535 119.865 71.9001 119.837 72.2251 119.837C72.8231 119.837 73.3215 119.915 73.7201 120.071C74.1231 120.227 74.4243 120.491 74.6236 120.864C74.8273 121.232 74.9291 121.737 74.9291 122.378V127H74.0581L73.9801 126.213H73.9151C73.6855 126.504 73.3908 126.727 73.0311 126.883C72.6758 127.039 72.2901 127.117 71.8741 127.117ZM80.2741 129.99C79.9491 129.99 79.6002 129.962 79.2276 129.906C78.8592 129.854 78.5147 129.776 78.1941 129.672V128.801C78.5624 128.913 78.9134 128.996 79.2471 129.048C79.5851 129.104 79.9079 129.132 80.2156 129.132C80.9782 129.132 81.5416 128.967 81.9056 128.638C82.2696 128.313 82.4516 127.748 82.4516 126.941V126.252H82.3931C82.1807 126.499 81.9077 126.701 81.5741 126.857C81.2447 127.013 80.8677 127.091 80.4431 127.091C79.9534 127.091 79.5049 126.978 79.0976 126.753C78.6902 126.523 78.3631 126.155 78.1161 125.648C77.8691 125.137 77.7456 124.458 77.7456 123.613C77.7456 122.348 78.0467 121.403 78.6491 120.779C79.2557 120.151 80.1462 119.837 81.3206 119.837C81.5632 119.837 81.8102 119.85 82.0616 119.876C82.3172 119.902 82.5664 119.939 82.8091 119.987C83.0517 120.034 83.2792 120.09 83.4916 120.155V126.786C83.4916 127.93 83.2229 128.749 82.6856 129.243C82.1482 129.741 81.3444 129.99 80.2741 129.99ZM80.7486 126.2C81.0649 126.2 81.3747 126.133 81.6781 125.999C81.9857 125.865 82.2436 125.659 82.4516 125.381V120.831C82.2956 120.792 82.1114 120.76 81.8991 120.734C81.6867 120.704 81.4657 120.688 81.2361 120.688C80.4474 120.688 79.8451 120.909 79.4291 121.351C79.0131 121.789 78.8051 122.511 78.8051 123.516C78.8051 124.214 78.8896 124.757 79.0586 125.147C79.2276 125.537 79.4572 125.81 79.7476 125.966C80.0422 126.122 80.3759 126.2 80.7486 126.2Z" fill="#E5DFD9"/>
<path d="M82.6476 40.5899C63.4014 38.4564 32.4729 38.6448 14.8655 40.5899C7.77536 41.3732 7.77536 42.429 6.42696 46.6682C2.5142 63.9306 1.53601 74.6285 1.53601 84.5969C1.53601 93.7893 8.90979 94.0173 14.8655 94.6406C24.1583 95.6131 74.6557 94.5654 83.4594 94.0791C92.2631 93.5928 94.464 91.0317 94.464 84.5969C94.464 76.7821 92.1083 52.6443 90.305 46.6682C89.1063 42.6956 88.887 41.2816 82.6476 40.5899Z" stroke="#E5DFD9" stroke-width="1.5"/>
<path d="M36.136 39.0238V32.2055C36.2306 31.2651 37.1003 29.3841 39.8229 29.3841C42.5456 29.3841 52.1126 29.3841 56.5557 29.3841C57.6902 29.3058 59.959 29.7603 59.959 32.2055C59.959 34.6507 59.959 37.7699 59.959 39.0238" stroke="#E5DFD9" stroke-width="1.5"/>
<path d="M41.241 48.3878H55.4213" stroke="#E5DFD9" stroke-width="1.5"/>
<path d="M21.9557 72.5074L21.9557 94.6406" stroke="#E5DFD9" stroke-width="1.5"/>
<path d="M73.5722 72.5074L73.5722 94.6406" stroke="#E5DFD9" stroke-width="1.5"/>
<path d="M48.3315 62.4747C56.8446 62.4749 63.7464 69.3799 63.7466 77.8985C63.7466 86.4173 56.8448 93.3231 48.3315 93.3233C39.8181 93.3233 32.9155 86.4174 32.9155 77.8985C32.9157 69.3797 39.8183 62.4747 48.3315 62.4747Z" stroke="#E5DFD9" stroke-width="1.5"/>
</svg>
